G04 Layer: TopLayer*
G04 EasyEDA v6.4.20.6, 2021-07-30T13:21:48--3:00*
G04 b5d51b18a43e43a9a62da66a6b900804,9d841d54c62b4e4b873e3168cd68637e,10*
G04 Gerber Generator version 0.2*
G04 Scale: 100 percent, Rotated: No, Reflected: No *
G04 Dimensions in millimeters *
G04 leading zeros omitted , absolute positions ,4 integer and 5 decimal *
%FSLAX45Y45*%
%MOMM*%

%ADD10C,0.3000*%
%ADD12C,1.0000*%
%ADD13C,3.0000*%
%ADD14C,0.5000*%
%ADD15C,0.6000*%
%ADD16C,0.4500*%
%ADD17C,0.7100*%
%ADD19R,1.3500X1.4100*%
%ADD20R,0.6350X1.2700*%
%ADD22R,1.6350X1.6000*%
%ADD23R,1.0160X1.9050*%
%ADD24R,1.3770X1.1325*%
%ADD25R,1.9050X1.0160*%
%ADD26R,1.2700X0.6350*%
%ADD27R,1.6000X1.6350*%
%ADD29R,1.2500X0.7000*%
%ADD30R,6.2001X5.4000*%
%ADD31R,1.6002X1.0008*%
%ADD32R,0.9800X2.2650*%
%ADD33C,1.8000*%
%ADD34C,1.5240*%
%ADD35C,1.6000*%
%ADD36C,1.3000*%
%ADD37R,1.8000X1.8000*%
%ADD38C,2.0000*%
%ADD39C,1.9000*%
%ADD40C,2.7940*%
%ADD41R,1.6000X1.6000*%
%ADD42C,1.2116*%
%ADD43C,1.3000*%
%ADD44C,3.5000*%

%LPD*%
D10*
X2071573Y4885258D02*
G01*
X2071573Y4926126D01*
X1638300Y5359400D01*
X1638300Y7150100D01*
X1710692Y7222492D01*
X2095500Y7222492D01*
D12*
X2235200Y4779261D02*
G01*
X2129203Y4885258D01*
X2071573Y4885258D01*
X2071573Y4885258D02*
G01*
X2154763Y4885258D01*
X2389002Y5119494D01*
X2389002Y5270500D01*
D13*
X5908537Y6412306D02*
G01*
X5908537Y6994664D01*
X5905502Y6997700D01*
D10*
X2988309Y6356350D02*
G01*
X3107436Y6356350D01*
X3128518Y6335521D01*
X3150108Y6335521D01*
X2988309Y6516370D02*
G01*
X3204718Y6516370D01*
X3236975Y6484112D01*
X3236975Y6021323D01*
X3276600Y5981700D01*
X3606800Y5981700D01*
X3625850Y6000750D01*
X3625850Y6145021D01*
X2988309Y6276594D02*
G01*
X3093720Y6276594D01*
X3131311Y6239002D01*
X3154679Y6239002D01*
X3025647Y6116573D02*
G01*
X3058668Y6116573D01*
X3124454Y6050787D01*
X3154773Y6050841D01*
X1968500Y6082360D02*
G01*
X2003732Y6117592D01*
X2112007Y6117592D01*
X2112009Y6437376D02*
G01*
X2033524Y6437376D01*
X2006600Y6464300D01*
X1892300Y6464300D01*
X1790700Y6362700D01*
X1790700Y6337300D01*
X1968500Y6387160D02*
G01*
X1998294Y6357365D01*
X2112007Y6357365D01*
X1968500Y6183960D02*
G01*
X1982139Y6197600D01*
X2112007Y6197600D01*
X2112009Y6517386D02*
G01*
X1864613Y6517386D01*
X1790700Y6591300D01*
X1968500Y6285560D02*
G01*
X2027854Y6285560D01*
X2035807Y6277607D01*
X2112007Y6277607D01*
X2112007Y6597395D02*
G01*
X2067303Y6642100D01*
X1968500Y6642100D01*
X-241300Y6202679D02*
G01*
X-30479Y6202679D01*
X203200Y5969000D01*
X203200Y5715000D01*
X279400Y4508957D02*
G01*
X279400Y4660900D01*
X751839Y4511217D02*
G01*
X751839Y4630928D01*
X769112Y4648200D01*
X2587726Y5715101D02*
G01*
X2587726Y5879569D01*
X2588257Y5880100D01*
X2108200Y5928360D02*
G01*
X2112007Y5932167D01*
X2112007Y6037579D01*
X2428491Y5880100D02*
G01*
X2425700Y5877308D01*
X2425700Y5714517D01*
X2349500Y5645861D02*
G01*
X2349500Y5879084D01*
X2348484Y5880100D01*
X2268372Y5716244D02*
G01*
X2268372Y5879995D01*
X2268476Y5880100D01*
X-228600Y8064500D02*
G01*
X-228600Y7672196D01*
X-228600Y8318500D02*
G01*
X-228600Y8698103D01*
X-228600Y8903970D02*
G01*
X-367029Y8903970D01*
X-419100Y8851900D01*
X-419100Y8166100D01*
X-317500Y8064500D01*
X-228600Y8064500D01*
X-241300Y6971642D02*
G01*
X1296057Y6971642D01*
X1473200Y6794500D01*
X1473200Y5715000D01*
D12*
X1358900Y8051800D02*
G01*
X1333500Y8026400D01*
X-228600Y8026400D01*
D10*
X2620312Y7721927D02*
G01*
X2736425Y7721927D01*
X2756382Y7741884D01*
X2269490Y6753860D02*
G01*
X2269490Y7489189D01*
X2605531Y7837678D01*
X2700527Y7932420D01*
X2755900Y7932420D01*
X1460500Y9779000D02*
G01*
X1651000Y9588500D01*
X2514600Y9588500D01*
X2578100Y9525000D01*
X2578100Y7940802D01*
X2358897Y7721600D01*
X2186940Y7721600D01*
X2077211Y7831328D01*
X2077211Y8009889D01*
X2070100Y7708900D02*
G01*
X2077206Y7716006D01*
X2077206Y8009892D01*
X-203200Y7440805D02*
G01*
X-290705Y7440805D01*
X-409702Y7559802D01*
X-409702Y7869758D01*
D12*
X1714500Y9779000D02*
G01*
X1460500Y9779000D01*
D10*
X2316988Y8576310D02*
G01*
X2316988Y8899652D01*
X2336800Y8919463D01*
X2755900Y8234578D02*
G01*
X2755900Y7932521D01*
X2311400Y7810500D02*
G01*
X2317092Y7816192D01*
X2317092Y8009836D01*
X3070857Y7128383D02*
G01*
X2867657Y7128383D01*
X2867657Y7334374D02*
G01*
X3070857Y7334374D01*
X3641394Y7319898D02*
G01*
X3641394Y7381544D01*
X3641404Y7465954D01*
X3070859Y6990079D02*
G01*
X3157220Y6990079D01*
X3619500Y6527800D01*
X3949700Y6527800D01*
X4009897Y6467602D01*
X4009897Y6181597D01*
X3973322Y6145021D01*
X3879850Y6145021D01*
X2988307Y6036561D02*
G01*
X2988307Y5977892D01*
X3111500Y5854700D01*
X3898900Y5854700D01*
X4394200Y5359400D01*
X4394200Y4597400D01*
X4432300Y4559300D01*
X4551573Y4559300D01*
X4749800Y4572000D02*
G01*
X4807173Y4514626D01*
X4807173Y4387601D01*
D14*
X5162550Y4546600D02*
G01*
X5067300Y4546600D01*
X4708649Y4905250D01*
X4708649Y5192265D01*
D10*
X5505450Y4546600D02*
G01*
X5664200Y4546600D01*
X5740400Y4622800D01*
X5740400Y4267200D02*
G01*
X5740400Y5024104D01*
X5908588Y5192293D01*
X5956300Y4483100D02*
G01*
X6159500Y4635500D01*
X6159500Y7506715D01*
X2811673Y3924300D02*
G01*
X2679600Y3792220D01*
X2679600Y3568725D01*
X2442209Y4575810D02*
G01*
X2566563Y4575810D01*
X2570373Y4572000D01*
X3494100Y4197604D02*
G01*
X3480943Y4197604D01*
X3383635Y4100296D01*
X3694175Y4292600D02*
G01*
X3694175Y3924300D01*
X3677920Y3924300D01*
X4154500Y4184904D02*
G01*
X4145000Y4184904D01*
X4049496Y4089400D01*
X3778961Y4559300D02*
G01*
X3903873Y4559300D01*
X3086100Y4572000D02*
G01*
X3230778Y4572000D01*
X2755900Y4597400D02*
G01*
X2813273Y4540026D01*
X2813273Y4400301D01*
X3416300Y4572000D02*
G01*
X3486373Y4501926D01*
X3486373Y4374901D01*
X4102100Y4572000D02*
G01*
X4159473Y4514626D01*
X4159473Y4387601D01*
X4381500Y4394200D02*
G01*
X4354499Y4367199D01*
X4354499Y4279900D01*
X4546600Y4145178D02*
G01*
X4648301Y4145178D01*
X4699000Y4094479D01*
X2557673Y4389226D02*
G01*
X2568747Y4400301D01*
X2813273Y4400301D01*
X2092959Y4598670D02*
G01*
X2092959Y4569460D01*
X1930400Y4406900D01*
X1930400Y4292600D01*
X3657600Y5332605D02*
G01*
X3657600Y5118100D01*
X3517900Y4978400D01*
X3873500Y5332605D02*
G01*
X3860800Y5332605D01*
X3860800Y5118100D01*
X4000500Y4978400D01*
X2978658Y5651500D02*
G01*
X3646170Y5651500D01*
X3657600Y5640070D01*
X3657600Y5538470D01*
X2828292Y5880100D02*
G01*
X2828292Y5807707D01*
X2908300Y5727700D01*
X3200400Y5727700D01*
X3200400Y5727700D02*
G01*
X3857848Y5727700D01*
X3873500Y5712048D01*
X3873500Y5538594D01*
X2748285Y5880100D02*
G01*
X2748285Y5773420D01*
X2870200Y5651500D01*
X2978632Y5651500D01*
D14*
X304545Y4326636D02*
G01*
X304545Y4389120D01*
X337565Y4422139D01*
X668273Y4422139D01*
X716279Y4374387D01*
X716279Y4318000D01*
D10*
X5002275Y4279900D02*
G01*
X5002275Y3911600D01*
X4986020Y3911600D01*
X4354575Y4279900D02*
G01*
X4354575Y3911600D01*
X4338320Y3911600D01*
X2235200Y3437381D02*
G01*
X2235200Y3078479D01*
X2329179Y2984500D01*
X2426461Y2984500D01*
X1638300Y5562345D02*
G01*
X1638300Y5676900D01*
X1790700Y5829300D01*
X3055442Y4408170D02*
G01*
X3020999Y4373727D01*
X3020999Y4292600D01*
X1955800Y6781800D02*
G01*
X2075078Y6901078D01*
X2095500Y6901078D01*
X2755900Y8427821D02*
G01*
X2755900Y8547100D01*
X5049164Y4396003D02*
G01*
X5002199Y4349038D01*
X5002199Y4279900D01*
X5921301Y7986290D02*
G01*
X5892800Y7957797D01*
X5892800Y7607300D01*
X5740400Y7454900D01*
X4821478Y7454900D01*
X6159500Y7721600D02*
G01*
X5908601Y7972498D01*
X6159500Y7505700D02*
G01*
X6159500Y7721600D01*
X3200400Y8078215D02*
G01*
X3023615Y8078215D01*
X2946400Y8001000D01*
X2946400Y7634986D01*
X2906013Y7594600D01*
X2463800Y7594600D01*
X2349500Y7480300D01*
X2349500Y6753860D01*
X3195426Y2984500D02*
G01*
X3325037Y2984500D01*
X-241300Y6668262D02*
G01*
X-241300Y6395720D01*
D12*
X-228600Y8356600D02*
G01*
X0Y8356600D01*
X127000Y8483600D01*
X127000Y9093200D01*
X42926Y9177274D01*
X-220979Y9177274D01*
D13*
X4708641Y6412306D02*
G01*
X4708641Y6988060D01*
X4699002Y6997700D01*
X5308589Y4992293D02*
G01*
X5308589Y6984989D01*
X5321300Y6997700D01*
X5921247Y9215714D02*
G01*
X5921247Y9854956D01*
X5930900Y9864608D01*
X4721352Y9206306D02*
G01*
X4721352Y9852152D01*
X4724400Y9855200D01*
X5321300Y7795701D02*
G01*
X5321300Y9851908D01*
X5334000Y9864608D01*
D10*
X4413361Y7644792D02*
G01*
X4478578Y7579575D01*
X4478578Y7454900D01*
D12*
X1739900Y9080500D02*
G01*
X1739900Y8420100D01*
X1358900Y8039100D01*
X1092200Y3302000D02*
G01*
X1155700Y3365500D01*
X2163318Y3365500D01*
X2235200Y3437381D01*
X2235200Y4779263D01*
X1092200Y3302000D02*
G01*
X1003300Y3213100D01*
X960628Y3213100D01*
D14*
X342900Y3644900D02*
G01*
X241300Y3644900D01*
X139700Y3543300D01*
X139700Y3200400D01*
X317500Y3022600D01*
X876300Y3022600D01*
X960678Y3106978D01*
X960678Y3213100D01*
D12*
X1548129Y4810505D02*
G01*
X1227581Y5130800D01*
X770636Y5130800D01*
X203200Y5715000D02*
G01*
X203200Y5198313D01*
X270713Y5130800D01*
D10*
X190500Y9779000D02*
G01*
X190500Y9740900D01*
X1460500Y8470900D01*
X1460500Y8369300D01*
D12*
X165100Y9728200D02*
G01*
X139372Y9728200D01*
X-220929Y9367898D01*
X190172Y9779000D01*
X190500Y9779000D01*
X2052314Y9482076D02*
G01*
X1755391Y9779000D01*
X1460500Y9779000D01*
D10*
X5948710Y7955955D02*
G01*
X5934001Y7941246D01*
X2514600Y6921500D02*
G01*
X2509514Y6916414D01*
X2509514Y6753857D01*
X2669280Y6753857D02*
G01*
X2669280Y7469880D01*
X2692400Y7493000D01*
X3937000Y7327900D02*
G01*
X3937000Y7461250D01*
X3911600Y8604250D02*
G01*
X4070350Y8604250D01*
X4076700Y8597900D01*
X3476167Y8594267D02*
G01*
X3486150Y8604250D01*
X3695700Y8604250D01*
X3175000Y8065493D02*
G01*
X3175000Y8319493D01*
X3641394Y7808848D02*
G01*
X3431644Y7808848D01*
X3175000Y8065493D01*
X4140200Y7815478D02*
G01*
X4133570Y7808848D01*
X3641394Y7808848D01*
X4140200Y8209178D02*
G01*
X4140200Y8008721D01*
X3873500Y8227060D02*
G01*
X4048861Y8402421D01*
X4140200Y8402421D01*
X3175000Y9386315D02*
G01*
X3175000Y9132315D01*
X3653967Y8943517D02*
G01*
X3363775Y8943517D01*
X3175000Y9132293D01*
X4114800Y8958478D02*
G01*
X4099839Y8943517D01*
X3653967Y8943517D01*
X4114800Y9352178D02*
G01*
X4114800Y9151721D01*
X3822700Y9385300D02*
G01*
X3982826Y9545421D01*
X4114800Y9545421D01*
X2063318Y3004820D02*
G01*
X2063318Y3132383D01*
X2046102Y3149600D01*
D12*
X2389002Y5270500D02*
G01*
X2389126Y5473700D01*
D10*
X3155035Y6591300D02*
G01*
X3149955Y6596379D01*
X2988307Y6596379D01*
X2829308Y6753857D02*
G01*
X2829308Y6870192D01*
X2855219Y6896100D01*
X3128614Y6896100D01*
X3625824Y6398895D01*
X2881497Y5461000D02*
G01*
X2717142Y5461000D01*
X2526642Y5270500D01*
X2389002Y5270500D01*
X2668264Y5880100D02*
G01*
X2668264Y5574035D01*
X2781300Y5461000D01*
X2881497Y5461000D01*
D12*
X4737100Y3314674D02*
G01*
X5549874Y3314674D01*
X5740400Y3505200D01*
X4051300Y3314700D02*
G01*
X4737100Y3314674D01*
X3365500Y3314700D02*
G01*
X4051300Y3314700D01*
X2679700Y3314674D02*
G01*
X3365500Y3314700D01*
D10*
X4792873Y3911600D02*
G01*
X4737000Y3855720D01*
X4737000Y3568700D01*
X4145173Y3911600D02*
G01*
X4051200Y3817620D01*
X4051200Y3568725D01*
X3484773Y3924300D02*
G01*
X3365400Y3804920D01*
X3365400Y3568725D01*
X4802200Y4184904D02*
G01*
X4789424Y4184904D01*
X4699000Y4094479D01*
X3898900Y4145178D02*
G01*
X3980073Y4145178D01*
X4035851Y4089400D01*
X4049496Y4089400D01*
X2565400Y4157878D02*
G01*
X2658262Y4157878D01*
X2720162Y4095978D01*
X2821000Y4197604D02*
G01*
X2720162Y4096765D01*
X2720162Y4095978D01*
X3225800Y4157878D02*
G01*
X3326053Y4157878D01*
X3383635Y4100296D01*
X3737432Y4421403D02*
G01*
X3694099Y4378070D01*
X3694099Y4292600D01*
X3020999Y4292600D02*
G01*
X3020999Y3924300D01*
X3004926Y3924300D01*
X2095500Y7094220D02*
G01*
X2095500Y7222489D01*
X3070857Y7128383D02*
G01*
X3070857Y6990079D01*
X3070857Y7334374D02*
G01*
X3075940Y7339456D01*
X3075940Y7479029D01*
X2524757Y7334374D02*
G01*
X2524757Y7475928D01*
X2525496Y7476667D01*
X2867657Y7128383D02*
G01*
X2749301Y7010021D01*
X2749301Y6753857D01*
X2524757Y7128383D02*
G01*
X2589273Y7063867D01*
X2589273Y6753857D01*
X3087502Y5257800D02*
G01*
X3087626Y5461000D01*
X3086100Y5118100D02*
G01*
X3087502Y5257800D01*
X2040661Y5265420D02*
G01*
X2127128Y5265420D01*
X2142368Y5250179D01*
X2182997Y5473700D02*
G01*
X2182997Y5290814D01*
X2142368Y5250179D01*
X3903873Y4363826D02*
G01*
X3927647Y4387601D01*
X4159473Y4387601D01*
X3218073Y4363826D02*
G01*
X3229147Y4374901D01*
X3460973Y4374901D01*
X4551573Y4351126D02*
G01*
X4588047Y4387601D01*
X4794473Y4387601D01*
D12*
X1406321Y3185261D02*
G01*
X1441983Y3149600D01*
X1840105Y3149600D01*
D15*
X829307Y4025900D02*
G01*
X1028700Y4025900D01*
D12*
X908050Y3810000D02*
G01*
X1123950Y3810000D01*
X1250950Y3810000D01*
D10*
X2336800Y9419386D02*
G01*
X2336800Y9271000D01*
X2077110Y9011310D01*
X2077110Y8576360D01*
D14*
X934821Y4306826D02*
G01*
X934821Y4225645D01*
X863600Y4154426D01*
X531799Y4154426D01*
X531799Y4217926D01*
D12*
X976505Y4648200D02*
G01*
X976505Y4925006D01*
X770712Y5130800D01*
D14*
X854707Y3557526D02*
G01*
X734999Y3557526D01*
X696899Y3595626D01*
X696899Y3595626D02*
G01*
X696899Y4154426D01*
X342900Y3914056D02*
G01*
X254000Y3914056D01*
X190500Y3977556D01*
X190500Y4038600D01*
X190500Y4038600D02*
G01*
X190500Y4269656D01*
X247395Y4326552D01*
X331800Y4326552D01*
X342900Y4127500D02*
G01*
X398195Y4127500D01*
X557199Y3968495D01*
X557199Y3320821D01*
X664921Y3213100D01*
X625220Y3257295D02*
G01*
X523620Y3358895D01*
X277799Y3358895D01*
D12*
X1250950Y3810000D02*
G01*
X1602742Y3810000D01*
X1628142Y3835400D01*
X829307Y3570226D02*
G01*
X1028700Y3570226D01*
X495300Y4648200D02*
G01*
X495300Y4762500D01*
X770712Y5037912D01*
X770712Y5130800D01*
X1739900Y9085069D02*
G01*
X1946653Y9291576D01*
X2052320Y9291576D01*
D10*
X2729738Y2984500D02*
G01*
X3002279Y2984500D01*
X3070857Y7128383D02*
G01*
X3737483Y7128383D01*
X3937000Y7327900D01*
X2881502Y5461000D02*
G01*
X2881502Y5257800D01*
X2508498Y5880100D02*
G01*
X2508498Y5562600D01*
X2419598Y5473700D01*
X2389002Y5473700D01*
X2451734Y6101079D02*
G01*
X2428493Y6077838D01*
X2428493Y5880100D01*
X2556509Y6101079D02*
G01*
X2588259Y6069329D01*
X2588259Y5880100D01*
X2509520Y6753860D02*
G01*
X2509520Y6592570D01*
X2556509Y6545579D01*
X2429507Y6753857D02*
G01*
X2429507Y6968492D01*
X2425700Y6972300D01*
X2988307Y6436357D02*
G01*
X3155541Y6436357D01*
X3156661Y6437477D01*
X2988307Y6196584D02*
G01*
X3074415Y6196584D01*
X3120897Y6150102D01*
X3156661Y6150102D01*
X2571546Y4885258D02*
G01*
X2571546Y5202275D01*
X2634333Y5265061D01*
X2984500Y4902200D02*
G01*
X2967558Y4885258D01*
X2571546Y4885258D01*
X2323084Y3232150D02*
G01*
X2323084Y3310018D01*
X2487752Y3474686D01*
X2487752Y3830675D01*
X3048000Y3683000D02*
G01*
X3225800Y3860800D01*
D14*
X5162550Y4546600D02*
G01*
X5162550Y4362450D01*
X5359400Y4165600D01*
X5359400Y3886200D01*
X5740400Y3505200D01*
D10*
X5090157Y4185920D02*
G01*
X5123179Y4152900D01*
X5123179Y3615689D01*
X3718433Y3615486D02*
G01*
X3835400Y3732453D01*
X3835400Y3852316D01*
X3953941Y3970858D01*
D12*
X1028700Y4025900D02*
G01*
X1028700Y4127500D01*
X1117600Y4216400D01*
X1117600Y4449058D01*
X1536700Y4810505D02*
G01*
X1484127Y4810505D01*
X1122679Y4449058D01*
X1104900Y5359400D02*
G01*
X1104900Y5148579D01*
X1122679Y5130800D01*
X1473200Y5715000D02*
G01*
X1244600Y5486400D01*
X1244600Y5359400D01*
D14*
X4708652Y5192268D02*
G01*
X4708652Y5273547D01*
X4254500Y5727700D01*
X4254500Y7468615D01*
X4721301Y7986293D01*
D16*
X2052010Y6037579D02*
G01*
X2172009Y6037579D01*
X2052010Y6117589D02*
G01*
X2172009Y6117589D01*
X2052010Y6197600D02*
G01*
X2172009Y6197600D01*
X2052010Y6277610D02*
G01*
X2172009Y6277610D01*
X2052010Y6357365D02*
G01*
X2172009Y6357365D01*
X2052010Y6437376D02*
G01*
X2172009Y6437376D01*
X2052010Y6517386D02*
G01*
X2172009Y6517386D01*
X2052010Y6597395D02*
G01*
X2172009Y6597395D01*
X2269490Y6813859D02*
G01*
X2269490Y6693860D01*
X2349500Y6813859D02*
G01*
X2349500Y6693860D01*
X2429509Y6813859D02*
G01*
X2429509Y6693860D01*
X2509520Y6813859D02*
G01*
X2509520Y6693860D01*
X2589275Y6813859D02*
G01*
X2589275Y6693860D01*
X2669286Y6813859D02*
G01*
X2669286Y6693860D01*
X2749295Y6813859D02*
G01*
X2749295Y6693860D01*
X2829306Y6813859D02*
G01*
X2829306Y6693860D01*
X2928310Y6596379D02*
G01*
X3048309Y6596379D01*
X2928310Y6516370D02*
G01*
X3048309Y6516370D01*
X2928310Y6436360D02*
G01*
X3048309Y6436360D01*
X2928310Y6356350D02*
G01*
X3048309Y6356350D01*
X2928310Y6276594D02*
G01*
X3048309Y6276594D01*
X2928310Y6196584D02*
G01*
X3048309Y6196584D01*
X2928310Y6116573D02*
G01*
X3048309Y6116573D01*
X2928310Y6036563D02*
G01*
X3048309Y6036563D01*
X2828290Y5940099D02*
G01*
X2828290Y5820100D01*
X2748279Y5940099D02*
G01*
X2748279Y5820100D01*
X2668270Y5940099D02*
G01*
X2668270Y5820100D01*
X2588259Y5940099D02*
G01*
X2588259Y5820100D01*
X2508504Y5940099D02*
G01*
X2508504Y5820100D01*
X2428493Y5940099D02*
G01*
X2428493Y5820100D01*
X2348484Y5940099D02*
G01*
X2348484Y5820100D01*
X2268474Y5940099D02*
G01*
X2268474Y5820100D01*
G36*
X767702Y3742499D02*
G01*
X767702Y3877500D01*
X908702Y3877500D01*
X908702Y3742499D01*
G37*
D19*
G01*
X3070859Y7334377D03*
D20*
G01*
X1244600Y5359400D03*
G01*
X1104900Y5359400D03*
G36*
X3138799Y2915650D02*
G01*
X3138799Y3053349D01*
X3252053Y3053349D01*
X3252053Y2915650D01*
G37*
G36*
X3058800Y2915650D02*
G01*
X3058800Y3053349D01*
X2945546Y3053349D01*
X2945546Y2915650D01*
G37*
D22*
G01*
X2426360Y2984500D03*
G01*
X2729839Y2984500D03*
D23*
G01*
X5162550Y4546600D03*
G01*
X5505450Y4546600D03*
G01*
X4478566Y7454900D03*
G01*
X4821466Y7454900D03*
G36*
X4071350Y9027800D02*
G01*
X4209049Y9027800D01*
X4209049Y8914546D01*
X4071350Y8914546D01*
G37*
D24*
G01*
X4140200Y9164421D03*
G36*
X4071350Y9421500D02*
G01*
X4209049Y9421500D01*
X4209049Y9308246D01*
X4071350Y9308246D01*
G37*
G01*
X4140200Y9558121D03*
D25*
G01*
X3911600Y8604250D03*
G01*
X3911600Y8947150D03*
G01*
X3641407Y8947150D03*
G01*
X3641407Y8604250D03*
G01*
X3641404Y7808854D03*
G01*
X3641404Y7465954D03*
G01*
X3911600Y7465956D03*
G01*
X3911600Y7808856D03*
G36*
X4096750Y8278500D02*
G01*
X4234449Y8278500D01*
X4234449Y8165246D01*
X4096750Y8165246D01*
G37*
D24*
G01*
X4165600Y8415121D03*
G36*
X4096750Y7884800D02*
G01*
X4234449Y7884800D01*
X4234449Y7771546D01*
X4096750Y7771546D01*
G37*
G01*
X4165600Y8021421D03*
G36*
X2687050Y8291200D02*
G01*
X2824749Y8291200D01*
X2824749Y8177946D01*
X2687050Y8177946D01*
G37*
G01*
X2755900Y8427821D03*
G36*
X2687050Y7795900D02*
G01*
X2824749Y7795900D01*
X2824749Y7682646D01*
X2687050Y7682646D01*
G37*
G01*
X2755900Y7932521D03*
G36*
X2164349Y7037699D02*
G01*
X2026650Y7037699D01*
X2026650Y7150953D01*
X2164349Y7150953D01*
G37*
G01*
X2095500Y6901078D03*
D26*
G01*
X-220929Y9367901D03*
G01*
X-220929Y9177401D03*
D27*
G01*
X-241300Y6971639D03*
G01*
X-241300Y6668160D03*
G36*
X-310149Y6259200D02*
G01*
X-172450Y6259200D01*
X-172450Y6145946D01*
X-310149Y6145946D01*
G37*
D24*
G01*
X-241300Y6395821D03*
G36*
X-161099Y8833599D02*
G01*
X-296100Y8833599D01*
X-296100Y8974599D01*
X-161099Y8974599D01*
G37*
D19*
G01*
X-228600Y8698103D03*
G36*
X-161099Y7601699D02*
G01*
X-296100Y7601699D01*
X-296100Y7742699D01*
X-161099Y7742699D01*
G37*
G01*
X-228600Y7466203D03*
G36*
X1910600Y3217100D02*
G01*
X1910600Y3082099D01*
X1769600Y3082099D01*
X1769600Y3217100D01*
G37*
G36*
X1975599Y3217100D02*
G01*
X1975599Y3082099D01*
X2116599Y3082099D01*
X2116599Y3217100D01*
G37*
G36*
X772800Y4386849D02*
G01*
X772800Y4249150D01*
X659546Y4249150D01*
X659546Y4386849D01*
G37*
G36*
X852799Y4386849D02*
G01*
X852799Y4249150D01*
X966053Y4249150D01*
X966053Y4386849D01*
G37*
G36*
X900300Y3128050D02*
G01*
X900300Y3298149D01*
X1021052Y3298149D01*
X1021052Y3128050D01*
G37*
G36*
X725299Y3128050D02*
G01*
X725299Y3298149D01*
X604547Y3298149D01*
X604547Y3128050D01*
G37*
G36*
X413499Y4580699D02*
G01*
X413499Y4715700D01*
X554499Y4715700D01*
X554499Y4580699D01*
G37*
G36*
X348500Y4580699D02*
G01*
X348500Y4715700D01*
X207500Y4715700D01*
X207500Y4580699D01*
G37*
G36*
X883399Y4580699D02*
G01*
X883399Y4715700D01*
X1024399Y4715700D01*
X1024399Y4580699D01*
G37*
G36*
X818400Y4580699D02*
G01*
X818400Y4715700D01*
X677400Y4715700D01*
X677400Y4580699D01*
G37*
D29*
G01*
X306400Y4324095D03*
G01*
X306400Y4134104D03*
G01*
X506399Y4229100D03*
D30*
G01*
X1558289Y3797300D03*
D31*
G01*
X829310Y4025900D03*
G01*
X829310Y3568700D03*
D26*
G01*
X2065045Y9474200D03*
G01*
X2065045Y9283700D03*
G36*
X2627000Y4640849D02*
G01*
X2627000Y4503150D01*
X2513746Y4503150D01*
X2513746Y4640849D01*
G37*
G36*
X2706999Y4640849D02*
G01*
X2706999Y4503150D01*
X2820253Y4503150D01*
X2820253Y4640849D01*
G37*
G36*
X3287400Y4640849D02*
G01*
X3287400Y4503150D01*
X3174146Y4503150D01*
X3174146Y4640849D01*
G37*
G36*
X3367399Y4640849D02*
G01*
X3367399Y4503150D01*
X3480653Y4503150D01*
X3480653Y4640849D01*
G37*
G36*
X3960500Y4628149D02*
G01*
X3960500Y4490450D01*
X3847246Y4490450D01*
X3847246Y4628149D01*
G37*
G36*
X4040499Y4628149D02*
G01*
X4040499Y4490450D01*
X4153753Y4490450D01*
X4153753Y4628149D01*
G37*
G36*
X4608200Y4628149D02*
G01*
X4608200Y4490450D01*
X4494946Y4490450D01*
X4494946Y4628149D01*
G37*
G36*
X4688199Y4628149D02*
G01*
X4688199Y4490450D01*
X4801453Y4490450D01*
X4801453Y4628149D01*
G37*
G36*
X2634249Y4294499D02*
G01*
X2496550Y4294499D01*
X2496550Y4407753D01*
X2634249Y4407753D01*
G37*
D24*
G01*
X2565400Y4157878D03*
G36*
X3294649Y4294499D02*
G01*
X3156950Y4294499D01*
X3156950Y4407753D01*
X3294649Y4407753D01*
G37*
G01*
X3225800Y4157878D03*
G36*
X3967749Y4281799D02*
G01*
X3830050Y4281799D01*
X3830050Y4395053D01*
X3967749Y4395053D01*
G37*
G01*
X3898900Y4145178D03*
G36*
X4615449Y4281799D02*
G01*
X4477750Y4281799D01*
X4477750Y4395053D01*
X4615449Y4395053D01*
G37*
G01*
X4546600Y4145178D03*
G36*
X2868300Y3993149D02*
G01*
X2868300Y3855450D01*
X2755046Y3855450D01*
X2755046Y3993149D01*
G37*
G36*
X2948299Y3993149D02*
G01*
X2948299Y3855450D01*
X3061553Y3855450D01*
X3061553Y3993149D01*
G37*
G36*
X3541400Y3993149D02*
G01*
X3541400Y3855450D01*
X3428146Y3855450D01*
X3428146Y3993149D01*
G37*
G36*
X3621399Y3993149D02*
G01*
X3621399Y3855450D01*
X3734653Y3855450D01*
X3734653Y3993149D01*
G37*
G36*
X4201800Y3980449D02*
G01*
X4201800Y3842750D01*
X4088546Y3842750D01*
X4088546Y3980449D01*
G37*
G36*
X4281799Y3980449D02*
G01*
X4281799Y3842750D01*
X4395053Y3842750D01*
X4395053Y3980449D01*
G37*
G36*
X4849500Y3980449D02*
G01*
X4849500Y3842750D01*
X4736246Y3842750D01*
X4736246Y3980449D01*
G37*
G36*
X4929499Y3980449D02*
G01*
X4929499Y3842750D01*
X5042753Y3842750D01*
X5042753Y3980449D01*
G37*
D29*
G01*
X2821000Y4387595D03*
G01*
X2821000Y4197604D03*
G01*
X3020999Y4292600D03*
G01*
X3494100Y4387595D03*
G01*
X3494100Y4197604D03*
G01*
X3694099Y4292600D03*
G01*
X4154500Y4374895D03*
G01*
X4154500Y4184904D03*
G01*
X4354499Y4279900D03*
G01*
X4802200Y4374895D03*
G01*
X4802200Y4184904D03*
G01*
X5002199Y4279900D03*
G36*
X3016999Y5190299D02*
G01*
X3016999Y5325300D01*
X3157999Y5325300D01*
X3157999Y5190299D01*
G37*
G36*
X2952000Y5190299D02*
G01*
X2952000Y5325300D01*
X2811000Y5325300D01*
X2811000Y5190299D01*
G37*
G36*
X2318499Y5406199D02*
G01*
X2318499Y5541200D01*
X2459499Y5541200D01*
X2459499Y5406199D01*
G37*
G36*
X2253500Y5406199D02*
G01*
X2253500Y5541200D01*
X2112500Y5541200D01*
X2112500Y5406199D01*
G37*
G36*
X2592260Y7263879D02*
G01*
X2457259Y7263879D01*
X2457259Y7404879D01*
X2592260Y7404879D01*
G37*
D19*
G01*
X2524759Y7128383D03*
G36*
X2800159Y7198880D02*
G01*
X2935160Y7198880D01*
X2935160Y7057880D01*
X2800159Y7057880D01*
G37*
G01*
X2867659Y7334377D03*
G01*
X3873500Y5538596D03*
G36*
X3805999Y5403100D02*
G01*
X3941000Y5403100D01*
X3941000Y5262100D01*
X3805999Y5262100D01*
G37*
G01*
X3657600Y5538596D03*
G36*
X3590099Y5403100D02*
G01*
X3725100Y5403100D01*
X3725100Y5262100D01*
X3590099Y5262100D01*
G37*
G36*
X3016999Y5393499D02*
G01*
X3016999Y5528500D01*
X3157999Y5528500D01*
X3157999Y5393499D01*
G37*
G36*
X2952000Y5393499D02*
G01*
X2952000Y5528500D01*
X2811000Y5528500D01*
X2811000Y5393499D01*
G37*
G36*
X2318499Y5202999D02*
G01*
X2318499Y5338000D01*
X2459499Y5338000D01*
X2459499Y5202999D01*
G37*
G36*
X2253500Y5202999D02*
G01*
X2253500Y5338000D01*
X2112500Y5338000D01*
X2112500Y5202999D01*
G37*
G36*
X3003359Y7198880D02*
G01*
X3138360Y7198880D01*
X3138360Y7057880D01*
X3003359Y7057880D01*
G37*
G01*
X3070859Y7334377D03*
G36*
X2366098Y8689599D02*
G01*
X2366098Y8463099D01*
X2268100Y8463099D01*
X2268100Y8689599D01*
G37*
G36*
X2126099Y8689599D02*
G01*
X2126099Y8463099D01*
X2028101Y8463099D01*
X2028101Y8689599D01*
G37*
D32*
G01*
X2317089Y8009839D03*
G01*
X2077110Y8009839D03*
G36*
X1244600Y4076700D02*
G01*
X2095500Y4076700D01*
X2095500Y3517900D01*
X1244600Y3517900D01*
G37*
D33*
G01*
X-228600Y8064500D03*
G01*
X-228600Y8318500D03*
D12*
G01*
X1790700Y5829300D03*
G01*
X1790700Y6083300D03*
G01*
X1790700Y6337300D03*
G01*
X1790700Y6591300D03*
D34*
G01*
X3200400Y9144990D03*
G01*
X3200400Y9398990D03*
G01*
X3200400Y8888984D03*
D33*
G01*
X3848100Y9398000D03*
G01*
X3594100Y9398000D03*
G01*
X3873500Y8227060D03*
G01*
X3619500Y8227060D03*
D34*
G01*
X3200400Y8078190D03*
G01*
X3200400Y8332190D03*
G01*
X3200400Y7822184D03*
D35*
G01*
X2336800Y8919387D03*
G01*
X2336800Y9419386D03*
D36*
G01*
X1406311Y3185253D03*
G01*
X1406311Y2985254D03*
D35*
G01*
X1536700Y4460494D03*
G01*
X1536700Y4810505D03*
G36*
X227500Y3493599D02*
G01*
X407499Y3493599D01*
X407499Y3313600D01*
X227500Y3313600D01*
G37*
D38*
G01*
X190500Y9779000D03*
G01*
X203200Y5715000D03*
G01*
X1473200Y5715000D03*
G01*
X1460500Y9779000D03*
D35*
G01*
X770712Y5130800D03*
G01*
X270713Y5130800D03*
D39*
G01*
X4737100Y3314674D03*
D37*
G01*
X4736998Y3568700D03*
D39*
G01*
X3365500Y3314700D03*
D37*
G01*
X3365398Y3568725D03*
D39*
G01*
X4051300Y3314700D03*
D37*
G01*
X4051198Y3568725D03*
D39*
G01*
X2679700Y3314674D03*
D37*
G01*
X2679598Y3568725D03*
D40*
G01*
X5921247Y9206306D03*
G01*
X5321300Y7786293D03*
G01*
X4721301Y7986293D03*
G01*
X5921298Y7986293D03*
G01*
X4721352Y9206306D03*
G01*
X5908547Y6412306D03*
G01*
X5308600Y4992293D03*
G01*
X4708601Y5192293D03*
G01*
X5908598Y5192293D03*
G01*
X4708652Y6412306D03*
D33*
G01*
X5740400Y3505200D03*
D37*
G01*
X5740400Y4267200D03*
D33*
G01*
X5740400Y4013200D03*
G01*
X5740400Y3759200D03*
D41*
G01*
X3371824Y6144895D03*
D35*
G01*
X3371824Y6398895D03*
G01*
X3625824Y6144895D03*
G01*
X3625824Y6398895D03*
G01*
X3879824Y6144895D03*
G01*
X3879824Y6398895D03*
D42*
G01*
X4000500Y4978400D03*
G01*
X3517900Y4978400D03*
D35*
G01*
X2571546Y4885265D03*
G01*
X2071573Y4885265D03*
D43*
G01*
X1028700Y3568700D03*
G01*
X1028700Y3797300D03*
G01*
X1028700Y4025900D03*
D44*
G01*
X4724400Y9855200D03*
G01*
X5334000Y9855200D03*
G01*
X5930900Y9855200D03*
G01*
X5905500Y6997700D03*
G01*
X5321300Y6997700D03*
G01*
X4699000Y6997700D03*
D17*
G01*
X2063325Y3004820D03*
G01*
X1943100Y4000500D03*
G01*
X1943100Y3860800D03*
G01*
X1943100Y3721100D03*
G01*
X1943100Y3581400D03*
G01*
X1384300Y3792220D03*
G01*
X1384300Y3624579D03*
G01*
X1562100Y3624579D03*
G01*
X1739900Y3624579D03*
G01*
X1739900Y3792220D03*
G01*
X1739900Y3959860D03*
G01*
X1562100Y3959860D03*
G01*
X1384300Y3959860D03*
G01*
X1562100Y3792220D03*
G01*
X279400Y4508969D03*
G01*
X751839Y4511227D03*
G01*
X3055437Y4408170D03*
G01*
X3737429Y4421416D03*
G01*
X4381500Y4394200D03*
G01*
X4699000Y4094479D03*
G01*
X4049486Y4089400D03*
G01*
X3383643Y4100286D03*
G01*
X2720152Y4095983D03*
G01*
X3759200Y4787900D03*
G01*
X3086100Y5118100D03*
G01*
X2587713Y5715111D03*
G01*
X2425700Y5714530D03*
G01*
X2268372Y5716249D03*
G01*
X2040653Y5265420D03*
G01*
X2349500Y5645856D03*
G01*
X2346959Y6101079D03*
G01*
X2451734Y6101079D03*
G01*
X2556509Y6101079D03*
G01*
X2661284Y6101079D03*
G01*
X2766059Y6101079D03*
G01*
X2766059Y6215379D03*
G01*
X2661284Y6215379D03*
G01*
X2556509Y6215379D03*
G01*
X2451734Y6215379D03*
G01*
X2346959Y6215379D03*
G01*
X2346959Y6323329D03*
G01*
X2451734Y6323329D03*
G01*
X2556509Y6323329D03*
G01*
X2661284Y6323329D03*
G01*
X2766059Y6323329D03*
G01*
X2766059Y6434454D03*
G01*
X2766059Y6545579D03*
G01*
X2661284Y6545579D03*
G01*
X2661284Y6434454D03*
G01*
X2556509Y6434454D03*
G01*
X2556509Y6545579D03*
G01*
X2451734Y6545579D03*
G01*
X2451734Y6434454D03*
G01*
X2346959Y6434454D03*
G01*
X2346959Y6545579D03*
G01*
X2525486Y7476672D03*
G01*
X3075940Y7479029D03*
G01*
X3070859Y6990079D03*
G01*
X-409691Y7869768D03*
G01*
X2311400Y7810500D03*
G01*
X1460500Y8369300D03*
G01*
X2095500Y7222489D03*
G01*
X2108200Y5928360D03*
G01*
X2442209Y4575810D03*
G01*
X3086100Y4572000D03*
G01*
X3778956Y4559300D03*
G01*
X3156656Y6591300D03*
G01*
X1955800Y6781800D03*
G01*
X2070100Y7708900D03*
G01*
X2755900Y8547100D03*
G01*
X2613659Y7719060D03*
G01*
X3641404Y7319904D03*
G01*
X3476170Y8594272D03*
G01*
X4076700Y8597900D03*
G01*
X3937000Y7327900D03*
G01*
X2692400Y7493000D03*
G01*
X2514600Y6921500D03*
G01*
X3325047Y2984500D03*
G01*
X5956300Y4483100D03*
G01*
X5049156Y4396013D03*
G01*
X1968500Y6285560D03*
G01*
X2634343Y5265059D03*
G01*
X2425700Y6972300D03*
G01*
X1968500Y6183960D03*
G01*
X1968500Y6082360D03*
G01*
X3156656Y6437490D03*
G01*
X3156658Y6340833D03*
G01*
X3156658Y6244165D03*
G01*
X3156653Y6147503D03*
G01*
X3154773Y6050841D03*
G01*
X2984500Y4902200D03*
G01*
X1930400Y4292600D03*
G01*
X2092959Y4598670D03*
G01*
X2323073Y3232150D03*
G01*
X2487747Y3830680D03*
G01*
X3048000Y3683000D03*
G01*
X3225800Y3860800D03*
G01*
X5123179Y3615689D03*
G01*
X5090159Y4185920D03*
G01*
X3718425Y3615489D03*
G01*
X3953931Y3970865D03*
G01*
X1968500Y6642100D03*
G01*
X1968500Y6387160D03*
D33*
X317500Y3911600D02*
G01*
X317500Y3911600D01*
X317500Y3657600D02*
G01*
X317500Y3657600D01*
M02*
