G04 Layer: BottomLayer*
G04 EasyEDA v6.4.20.6, 2021-07-30T13:21:48--3:00*
G04 b5d51b18a43e43a9a62da66a6b900804,9d841d54c62b4e4b873e3168cd68637e,10*
G04 Gerber Generator version 0.2*
G04 Scale: 100 percent, Rotated: No, Reflected: No *
G04 Dimensions in millimeters *
G04 leading zeros omitted , absolute positions ,4 integer and 5 decimal *
%FSLAX45Y45*%
%MOMM*%

%ADD10C,0.3000*%
%ADD12C,1.0000*%
%ADD13C,3.0000*%
%ADD17C,0.7100*%
%ADD33C,1.8000*%
%ADD34C,1.5240*%
%ADD35C,1.6000*%
%ADD36C,1.3000*%
%ADD37R,1.8000X1.8000*%
%ADD38C,2.0000*%
%ADD39C,1.9000*%
%ADD40C,2.7940*%
%ADD41R,1.6000X1.6000*%
%ADD42C,1.2116*%
%ADD43C,1.3000*%
%ADD44C,3.5000*%

%LPD*%
G36*
X480161Y2818688D02*
G01*
X476250Y2819501D01*
X472948Y2821736D01*
X470763Y2825038D01*
X470001Y2828950D01*
X482600Y4055922D01*
X481584Y4056938D01*
X-78740Y4056938D01*
X-82651Y4057700D01*
X-85902Y4059936D01*
X-88138Y4063237D01*
X-88900Y4067098D01*
X-88900Y7111542D01*
X-88239Y7115098D01*
X-86360Y7118248D01*
X-83464Y7120483D01*
X1928164Y8183270D01*
X1930450Y8184134D01*
X1932939Y8184438D01*
X2403144Y8184438D01*
X2407005Y8183676D01*
X2410307Y8181492D01*
X2412542Y8178190D01*
X2413304Y8174278D01*
X2413304Y7861046D01*
X2412542Y7857134D01*
X2410307Y7853832D01*
X2318867Y7762392D01*
X2315565Y7760157D01*
X2311654Y7759395D01*
X2123643Y7759395D01*
X2120138Y7760055D01*
X2117039Y7761833D01*
X2111806Y7766303D01*
X2102307Y7772146D01*
X2092045Y7776413D01*
X2081225Y7779003D01*
X2070100Y7779867D01*
X2058974Y7779003D01*
X2048154Y7776413D01*
X2037892Y7772146D01*
X2028393Y7766303D01*
X2019909Y7759090D01*
X2012696Y7750606D01*
X2006854Y7741107D01*
X2002586Y7730845D01*
X1999996Y7720025D01*
X1999132Y7708900D01*
X1999996Y7697774D01*
X2002586Y7686954D01*
X2006854Y7676692D01*
X2012696Y7667193D01*
X2019909Y7658709D01*
X2028393Y7651496D01*
X2037892Y7645653D01*
X2048154Y7641386D01*
X2058974Y7638796D01*
X2070100Y7637932D01*
X2081225Y7638796D01*
X2092045Y7641386D01*
X2102307Y7645653D01*
X2111806Y7651496D01*
X2117039Y7655966D01*
X2120138Y7657744D01*
X2123643Y7658404D01*
X2336596Y7658404D01*
X2341219Y7658608D01*
X2345588Y7659166D01*
X2349855Y7660131D01*
X2354072Y7661452D01*
X2358136Y7663129D01*
X2362047Y7665161D01*
X2365756Y7667548D01*
X2369261Y7670190D01*
X2372664Y7673340D01*
X2499360Y7800035D01*
X2502509Y7803438D01*
X2505151Y7806944D01*
X2507538Y7810652D01*
X2509570Y7814564D01*
X2511247Y7818628D01*
X2512568Y7822844D01*
X2513533Y7827111D01*
X2514092Y7831480D01*
X2514295Y7836103D01*
X2514295Y8174278D01*
X2515108Y8178190D01*
X2517292Y8181492D01*
X2520594Y8183676D01*
X2524455Y8184438D01*
X2551684Y8184438D01*
X2552700Y8185454D01*
X2552700Y8407958D01*
X2553462Y8411870D01*
X2555697Y8415121D01*
X2634132Y8493607D01*
X2637434Y8495792D01*
X2641346Y8496604D01*
X2702356Y8496604D01*
X2705862Y8495944D01*
X2708960Y8494166D01*
X2714193Y8489696D01*
X2723692Y8483854D01*
X2733954Y8479586D01*
X2744774Y8476996D01*
X2755900Y8476132D01*
X2767025Y8476996D01*
X2777845Y8479586D01*
X2788107Y8483854D01*
X2797606Y8489696D01*
X2806090Y8496909D01*
X2813304Y8505393D01*
X2819146Y8514892D01*
X2823413Y8525154D01*
X2826004Y8535974D01*
X2826867Y8547100D01*
X2826004Y8558225D01*
X2823413Y8569045D01*
X2819146Y8579307D01*
X2813304Y8588806D01*
X2806090Y8597290D01*
X2797606Y8604504D01*
X2788107Y8610346D01*
X2777845Y8614613D01*
X2767025Y8617204D01*
X2755900Y8618067D01*
X2744774Y8617204D01*
X2733954Y8614613D01*
X2723692Y8610346D01*
X2714193Y8604504D01*
X2708960Y8600033D01*
X2705862Y8598255D01*
X2702356Y8597595D01*
X2616403Y8597595D01*
X2611780Y8597392D01*
X2607411Y8596833D01*
X2603144Y8595868D01*
X2598928Y8594547D01*
X2594864Y8592870D01*
X2590952Y8590838D01*
X2587244Y8588451D01*
X2583738Y8585809D01*
X2580335Y8582660D01*
X2570022Y8572398D01*
X2566771Y8570163D01*
X2562860Y8569401D01*
X2558948Y8570163D01*
X2555697Y8572398D01*
X2553462Y8575649D01*
X2552700Y8579561D01*
X2552700Y9520478D01*
X2553462Y9524390D01*
X2555697Y9527692D01*
X2558948Y9529876D01*
X2562860Y9530638D01*
X3191510Y9530638D01*
X3195777Y9529724D01*
X3199231Y9527082D01*
X3200400Y9524949D01*
X3201568Y9527082D01*
X3205022Y9529724D01*
X3209290Y9530638D01*
X3536289Y9530638D01*
X3540150Y9529876D01*
X3543401Y9527743D01*
X3545636Y9524492D01*
X3546449Y9520682D01*
X3545738Y9516821D01*
X3543655Y9513468D01*
X3540455Y9511233D01*
X3535781Y9509099D01*
X3522827Y9501276D01*
X3510889Y9491929D01*
X3500170Y9481210D01*
X3490823Y9469272D01*
X3483000Y9456318D01*
X3476751Y9442500D01*
X3472281Y9428022D01*
X3469538Y9413138D01*
X3468624Y9398000D01*
X3469538Y9382861D01*
X3472281Y9367977D01*
X3476751Y9353499D01*
X3483000Y9339681D01*
X3490823Y9326727D01*
X3500170Y9314789D01*
X3510889Y9304070D01*
X3522827Y9294723D01*
X3535781Y9286900D01*
X3549599Y9280652D01*
X3564077Y9276130D01*
X3578961Y9273438D01*
X3594100Y9272524D01*
X3609238Y9273438D01*
X3624122Y9276130D01*
X3638600Y9280652D01*
X3652418Y9286900D01*
X3665372Y9294723D01*
X3677310Y9304070D01*
X3688029Y9314789D01*
X3697376Y9326727D01*
X3705199Y9339681D01*
X3711803Y9354515D01*
X3714038Y9357664D01*
X3717290Y9359798D01*
X3721100Y9360509D01*
X3724910Y9359798D01*
X3728161Y9357664D01*
X3730396Y9354515D01*
X3737000Y9339681D01*
X3744823Y9326727D01*
X3754170Y9314789D01*
X3764889Y9304070D01*
X3776827Y9294723D01*
X3789781Y9286900D01*
X3803599Y9280652D01*
X3818077Y9276130D01*
X3832961Y9273438D01*
X3848100Y9272524D01*
X3863238Y9273438D01*
X3878122Y9276130D01*
X3892600Y9280652D01*
X3906418Y9286900D01*
X3919372Y9294723D01*
X3931310Y9304070D01*
X3942029Y9314789D01*
X3951376Y9326727D01*
X3959199Y9339681D01*
X3965448Y9353499D01*
X3969918Y9367977D01*
X3972661Y9382861D01*
X3973576Y9398000D01*
X3972661Y9413138D01*
X3969918Y9428022D01*
X3965448Y9442500D01*
X3959199Y9456318D01*
X3951376Y9469272D01*
X3942029Y9481210D01*
X3931310Y9491929D01*
X3919372Y9501276D01*
X3906418Y9509099D01*
X3901744Y9511233D01*
X3898544Y9513468D01*
X3896461Y9516821D01*
X3895750Y9520682D01*
X3896563Y9524492D01*
X3898798Y9527743D01*
X3902049Y9529876D01*
X3905910Y9530638D01*
X4307840Y9530638D01*
X4311751Y9529876D01*
X4315002Y9527692D01*
X4317238Y9524390D01*
X4318000Y9520478D01*
X4318000Y4604054D01*
X4318965Y4603038D01*
X5171490Y4596790D01*
X5175402Y4595977D01*
X5178653Y4593742D01*
X5180838Y4590491D01*
X5181600Y4586630D01*
X5181600Y4543755D01*
X5180838Y4539894D01*
X5178602Y4536592D01*
X5175351Y4534357D01*
X5171440Y4533595D01*
X5136489Y4533595D01*
X5131866Y4533392D01*
X5127498Y4532833D01*
X5123180Y4531868D01*
X5119014Y4530547D01*
X5114899Y4528870D01*
X5110988Y4526838D01*
X5107279Y4524451D01*
X5103825Y4521809D01*
X5100370Y4518660D01*
X5051348Y4469587D01*
X5048402Y4467555D01*
X5044948Y4466640D01*
X5038039Y4466132D01*
X5027218Y4463491D01*
X5016957Y4459274D01*
X5007457Y4453432D01*
X4998974Y4446219D01*
X4991760Y4437735D01*
X4985918Y4428236D01*
X4981651Y4417923D01*
X4979060Y4407103D01*
X4978196Y4396028D01*
X4979060Y4384903D01*
X4981651Y4374083D01*
X4985918Y4363770D01*
X4991760Y4354271D01*
X4998974Y4345838D01*
X5007457Y4338574D01*
X5016957Y4332782D01*
X5027218Y4328515D01*
X5038039Y4325924D01*
X5049164Y4325061D01*
X5060238Y4325924D01*
X5071110Y4328515D01*
X5081371Y4332782D01*
X5090871Y4338574D01*
X5099354Y4345838D01*
X5106568Y4354271D01*
X5112410Y4363770D01*
X5116677Y4374083D01*
X5119268Y4384903D01*
X5119776Y4391761D01*
X5120690Y4395216D01*
X5122722Y4398162D01*
X5154218Y4429607D01*
X5157520Y4431792D01*
X5161381Y4432604D01*
X5171440Y4432604D01*
X5175351Y4431792D01*
X5178602Y4429607D01*
X5180838Y4426305D01*
X5181600Y4422444D01*
X5181600Y4177741D01*
X5180838Y4173829D01*
X5178602Y4170578D01*
X4998567Y3990492D01*
X4995265Y3988257D01*
X4991354Y3987495D01*
X4520946Y3987495D01*
X4517034Y3988257D01*
X4513732Y3990492D01*
X4434992Y4069232D01*
X4432808Y4072534D01*
X4431995Y4076446D01*
X4431995Y4340656D01*
X4432655Y4344162D01*
X4434433Y4347260D01*
X4438904Y4352493D01*
X4444746Y4361992D01*
X4449013Y4372254D01*
X4451604Y4383074D01*
X4452467Y4394200D01*
X4451604Y4405325D01*
X4449013Y4416145D01*
X4444746Y4426407D01*
X4438904Y4435906D01*
X4431690Y4444390D01*
X4423206Y4451604D01*
X4413707Y4457446D01*
X4403445Y4461713D01*
X4392625Y4464304D01*
X4381500Y4465167D01*
X4370374Y4464304D01*
X4359554Y4461713D01*
X4349292Y4457446D01*
X4339793Y4451604D01*
X4331309Y4444390D01*
X4324096Y4435906D01*
X4318254Y4426407D01*
X4313986Y4416145D01*
X4311396Y4405325D01*
X4310532Y4394200D01*
X4311396Y4383074D01*
X4313986Y4372254D01*
X4318254Y4361992D01*
X4324096Y4352493D01*
X4328566Y4347260D01*
X4330344Y4344162D01*
X4331004Y4340656D01*
X4331004Y4051503D01*
X4331208Y4046880D01*
X4331766Y4042511D01*
X4332732Y4038244D01*
X4334052Y4034028D01*
X4335729Y4029964D01*
X4337761Y4026052D01*
X4340148Y4022344D01*
X4342790Y4018838D01*
X4345940Y4015435D01*
X4445406Y3915968D01*
X4447641Y3912666D01*
X4448403Y3908755D01*
X4447641Y3904894D01*
X4445406Y3901592D01*
X4442104Y3899357D01*
X4438243Y3898595D01*
X3898646Y3898595D01*
X3894734Y3899357D01*
X3891432Y3901592D01*
X3790899Y4002125D01*
X3788714Y4005427D01*
X3787952Y4009288D01*
X3787952Y4367834D01*
X3788562Y4371390D01*
X3790391Y4374438D01*
X3794861Y4379722D01*
X3800652Y4389170D01*
X3804920Y4399483D01*
X3807510Y4410303D01*
X3808425Y4421428D01*
X3807510Y4432503D01*
X3804920Y4443374D01*
X3800652Y4453636D01*
X3794861Y4463135D01*
X3787241Y4471924D01*
X3784600Y4475480D01*
X3783685Y4479798D01*
X3784701Y4484116D01*
X3787495Y4487570D01*
X3791458Y4489551D01*
X3800906Y4491786D01*
X3811168Y4496054D01*
X3820668Y4501896D01*
X3829151Y4509109D01*
X3836365Y4517593D01*
X3842207Y4527092D01*
X3846474Y4537354D01*
X3849065Y4548174D01*
X3849928Y4559300D01*
X3849065Y4570425D01*
X3846474Y4581245D01*
X3842207Y4591507D01*
X3836365Y4601006D01*
X3829151Y4609490D01*
X3820668Y4616704D01*
X3811168Y4622546D01*
X3800906Y4626813D01*
X3790035Y4629404D01*
X3783177Y4629962D01*
X3779723Y4630826D01*
X3776776Y4632909D01*
X3624326Y4785360D01*
X3620922Y4788509D01*
X3617417Y4791151D01*
X3613708Y4793538D01*
X3609797Y4795570D01*
X3605733Y4797247D01*
X3601516Y4798568D01*
X3597249Y4799533D01*
X3592880Y4800092D01*
X3588258Y4800295D01*
X2908046Y4800295D01*
X2904134Y4801057D01*
X2900832Y4803292D01*
X2898292Y4805832D01*
X2896108Y4809134D01*
X2895295Y4813046D01*
X2895295Y5054396D01*
X2895092Y5059019D01*
X2894533Y5063388D01*
X2893568Y5067655D01*
X2892247Y5071872D01*
X2890570Y5075936D01*
X2888538Y5079847D01*
X2886151Y5083556D01*
X2883509Y5087061D01*
X2880360Y5090464D01*
X2791764Y5179060D01*
X2788361Y5182209D01*
X2784856Y5184851D01*
X2781147Y5187238D01*
X2777236Y5189270D01*
X2773172Y5190947D01*
X2768955Y5192268D01*
X2764688Y5193233D01*
X2760319Y5193792D01*
X2755696Y5193995D01*
X2501646Y5193995D01*
X2497734Y5194757D01*
X2494432Y5196992D01*
X2491892Y5199532D01*
X2489708Y5202834D01*
X2488895Y5206746D01*
X2488895Y5562396D01*
X2488692Y5567019D01*
X2488133Y5571388D01*
X2487168Y5575655D01*
X2485847Y5579872D01*
X2484170Y5583936D01*
X2482138Y5587847D01*
X2479751Y5591556D01*
X2477109Y5595061D01*
X2473960Y5598464D01*
X2422601Y5649823D01*
X2420569Y5652770D01*
X2417013Y5667806D01*
X2412746Y5678068D01*
X2406904Y5687568D01*
X2399690Y5696051D01*
X2391206Y5703265D01*
X2381707Y5709107D01*
X2371445Y5713374D01*
X2360625Y5715965D01*
X2345537Y5717286D01*
X2342083Y5719216D01*
X2339644Y5722366D01*
X2335885Y5738164D01*
X2331618Y5748477D01*
X2325776Y5757976D01*
X2318562Y5766460D01*
X2310079Y5773674D01*
X2300579Y5779465D01*
X2290318Y5783732D01*
X2279497Y5786374D01*
X2268372Y5787237D01*
X2257247Y5786374D01*
X2246426Y5783732D01*
X2236165Y5779465D01*
X2226665Y5773674D01*
X2218182Y5766460D01*
X2210968Y5757976D01*
X2205126Y5748477D01*
X2200859Y5738164D01*
X2198268Y5727344D01*
X2197404Y5716270D01*
X2198268Y5705144D01*
X2200859Y5694324D01*
X2205126Y5684012D01*
X2210968Y5674512D01*
X2215438Y5669280D01*
X2217216Y5666181D01*
X2217877Y5662676D01*
X2217877Y5625084D01*
X2217115Y5621223D01*
X2214880Y5617921D01*
X2211578Y5615686D01*
X2207717Y5614924D01*
X2203805Y5615686D01*
X2200503Y5617921D01*
X2123592Y5694832D01*
X2121408Y5698134D01*
X2120595Y5702046D01*
X2120595Y5850585D01*
X2121611Y5854954D01*
X2124354Y5858459D01*
X2128418Y5860440D01*
X2130145Y5860846D01*
X2140407Y5865114D01*
X2149906Y5870956D01*
X2158390Y5878169D01*
X2165604Y5886653D01*
X2171446Y5896152D01*
X2175713Y5906414D01*
X2178304Y5917234D01*
X2179167Y5928360D01*
X2178304Y5939485D01*
X2175713Y5950305D01*
X2171446Y5960567D01*
X2165604Y5970066D01*
X2158390Y5978550D01*
X2149906Y5985764D01*
X2140407Y5991606D01*
X2130145Y5995873D01*
X2119325Y5998464D01*
X2108200Y5999327D01*
X2097074Y5998464D01*
X2086254Y5995873D01*
X2075992Y5991606D01*
X2066493Y5985764D01*
X2058009Y5978550D01*
X2050796Y5970066D01*
X2044954Y5960567D01*
X2040686Y5950305D01*
X2038096Y5939485D01*
X2037537Y5932576D01*
X2036724Y5929325D01*
X2034895Y5926480D01*
X2031390Y5922721D01*
X2028748Y5919216D01*
X2026361Y5915507D01*
X2024329Y5911596D01*
X2022652Y5907532D01*
X2021332Y5903315D01*
X2020366Y5899048D01*
X2019807Y5894679D01*
X2019604Y5890056D01*
X2019604Y5677103D01*
X2019807Y5672480D01*
X2020366Y5668111D01*
X2021332Y5663844D01*
X2022652Y5659628D01*
X2024329Y5655564D01*
X2026361Y5651652D01*
X2028748Y5647944D01*
X2031390Y5644438D01*
X2034539Y5641035D01*
X2232507Y5443067D01*
X2234742Y5439765D01*
X2235504Y5435854D01*
X2235504Y4711903D01*
X2235708Y4707280D01*
X2236266Y4702911D01*
X2237232Y4698644D01*
X2238552Y4694428D01*
X2240229Y4690364D01*
X2242261Y4686452D01*
X2244648Y4682744D01*
X2247290Y4679238D01*
X2250440Y4675835D01*
X2374900Y4551375D01*
X2377135Y4548073D01*
X2378964Y4543602D01*
X2384806Y4534103D01*
X2392019Y4525619D01*
X2400503Y4518406D01*
X2410002Y4512564D01*
X2420264Y4508296D01*
X2431084Y4505706D01*
X2442210Y4504842D01*
X2453335Y4505706D01*
X2464155Y4508296D01*
X2474417Y4512564D01*
X2483916Y4518406D01*
X2492400Y4525619D01*
X2499614Y4534103D01*
X2505456Y4543602D01*
X2509723Y4553864D01*
X2512314Y4564684D01*
X2513177Y4575810D01*
X2512314Y4586935D01*
X2509723Y4597755D01*
X2505456Y4608017D01*
X2499614Y4617516D01*
X2492400Y4626000D01*
X2483916Y4633214D01*
X2474417Y4639056D01*
X2464155Y4643323D01*
X2453335Y4645914D01*
X2442210Y4646777D01*
X2426868Y4645507D01*
X2423515Y4646422D01*
X2420721Y4648403D01*
X2339492Y4729632D01*
X2337308Y4732934D01*
X2336495Y4736846D01*
X2336495Y5060543D01*
X2337308Y5064404D01*
X2339492Y5067706D01*
X2342794Y5069941D01*
X2346655Y5070703D01*
X2350566Y5069941D01*
X2353868Y5067706D01*
X2377135Y5044440D01*
X2380538Y5041290D01*
X2384044Y5038648D01*
X2387752Y5036261D01*
X2391664Y5034229D01*
X2395728Y5032552D01*
X2399944Y5031232D01*
X2404211Y5030266D01*
X2408580Y5029708D01*
X2413203Y5029504D01*
X2692654Y5029504D01*
X2696565Y5028692D01*
X2699867Y5026507D01*
X2727807Y4998567D01*
X2730042Y4995265D01*
X2730804Y4991354D01*
X2730804Y4623003D01*
X2731008Y4618380D01*
X2731566Y4614011D01*
X2732532Y4609744D01*
X2733852Y4605528D01*
X2735529Y4601464D01*
X2737561Y4597552D01*
X2739948Y4593844D01*
X2742590Y4590338D01*
X2745740Y4586935D01*
X2796235Y4536440D01*
X2799638Y4533290D01*
X2803144Y4530648D01*
X2806852Y4528261D01*
X2810764Y4526229D01*
X2814828Y4524552D01*
X2819044Y4523232D01*
X2823311Y4522266D01*
X2827680Y4521708D01*
X2832303Y4521504D01*
X3032556Y4521504D01*
X3036062Y4520844D01*
X3039160Y4519066D01*
X3044393Y4514596D01*
X3053892Y4508754D01*
X3064154Y4504486D01*
X3074974Y4501896D01*
X3086100Y4501032D01*
X3097225Y4501896D01*
X3108045Y4504486D01*
X3118307Y4508754D01*
X3127806Y4514596D01*
X3136290Y4521809D01*
X3143504Y4530293D01*
X3149346Y4539792D01*
X3153613Y4550054D01*
X3156204Y4560874D01*
X3157067Y4572000D01*
X3156204Y4583125D01*
X3153613Y4593945D01*
X3149346Y4604207D01*
X3143504Y4613706D01*
X3136290Y4622190D01*
X3127806Y4629404D01*
X3118307Y4635246D01*
X3108045Y4639513D01*
X3097225Y4642104D01*
X3086100Y4642967D01*
X3074974Y4642104D01*
X3064154Y4639513D01*
X3053892Y4635246D01*
X3044393Y4629404D01*
X3039160Y4624933D01*
X3036062Y4623155D01*
X3032556Y4622495D01*
X2857246Y4622495D01*
X2853334Y4623257D01*
X2850032Y4625492D01*
X2834792Y4640732D01*
X2832608Y4644034D01*
X2831795Y4647946D01*
X2831795Y4705096D01*
X2832506Y4708804D01*
X2834538Y4712055D01*
X2837586Y4714290D01*
X2841294Y4715256D01*
X2845054Y4714798D01*
X2848406Y4712970D01*
X2854045Y4708347D01*
X2857652Y4706061D01*
X2861564Y4704029D01*
X2865628Y4702352D01*
X2869844Y4701032D01*
X2874111Y4700066D01*
X2878480Y4699508D01*
X2883103Y4699304D01*
X3563315Y4699304D01*
X3567226Y4698492D01*
X3570528Y4696307D01*
X3705351Y4561433D01*
X3707434Y4558538D01*
X3708298Y4555083D01*
X3708857Y4548174D01*
X3711448Y4537354D01*
X3715715Y4527092D01*
X3721557Y4517593D01*
X3729126Y4508804D01*
X3731818Y4505248D01*
X3732733Y4500880D01*
X3731666Y4496612D01*
X3728923Y4493107D01*
X3724910Y4491177D01*
X3715512Y4488942D01*
X3705199Y4484674D01*
X3695700Y4478832D01*
X3687216Y4471619D01*
X3680002Y4463135D01*
X3674211Y4453636D01*
X3669944Y4443374D01*
X3667302Y4432503D01*
X3666439Y4421428D01*
X3667302Y4410303D01*
X3669944Y4399483D01*
X3674211Y4389170D01*
X3680002Y4379722D01*
X3684473Y4374438D01*
X3686301Y4371390D01*
X3686911Y4367834D01*
X3686911Y3984396D01*
X3687114Y3979773D01*
X3687724Y3975404D01*
X3688638Y3971086D01*
X3689959Y3966921D01*
X3691686Y3962806D01*
X3693718Y3958894D01*
X3696055Y3955186D01*
X3698748Y3951732D01*
X3701897Y3948277D01*
X3837635Y3812540D01*
X3841038Y3809390D01*
X3844442Y3806799D01*
X3850487Y3803192D01*
X3853637Y3800195D01*
X3855262Y3796131D01*
X3855059Y3791762D01*
X3853027Y3787901D01*
X3849522Y3785260D01*
X3845255Y3784295D01*
X3189986Y3784295D01*
X3186074Y3785057D01*
X3182772Y3787292D01*
X3108909Y3861155D01*
X3106724Y3864457D01*
X3105962Y3868318D01*
X3105962Y4354626D01*
X3106572Y4358132D01*
X3108401Y4361230D01*
X3112871Y4366463D01*
X3118662Y4375962D01*
X3122930Y4386224D01*
X3125520Y4397044D01*
X3126435Y4408170D01*
X3125520Y4419295D01*
X3122930Y4430115D01*
X3118662Y4440377D01*
X3112871Y4449876D01*
X3105607Y4458360D01*
X3097174Y4465574D01*
X3087674Y4471416D01*
X3077362Y4475683D01*
X3066542Y4478274D01*
X3055416Y4479137D01*
X3044342Y4478274D01*
X3033522Y4475683D01*
X3023209Y4471416D01*
X3013710Y4465574D01*
X3005226Y4458360D01*
X2998012Y4449876D01*
X2992221Y4440377D01*
X2987954Y4430115D01*
X2985312Y4419295D01*
X2984449Y4408170D01*
X2985312Y4397044D01*
X2987954Y4386224D01*
X2992221Y4375962D01*
X2998012Y4366463D01*
X3002483Y4361180D01*
X3004312Y4358132D01*
X3004921Y4354626D01*
X3004921Y3843426D01*
X3005124Y3838803D01*
X3005734Y3834434D01*
X3006648Y3830116D01*
X3007969Y3825951D01*
X3009696Y3821836D01*
X3011728Y3817975D01*
X3014065Y3814216D01*
X3016758Y3810762D01*
X3019907Y3807307D01*
X3128975Y3698240D01*
X3132378Y3695090D01*
X3135884Y3692448D01*
X3139592Y3690061D01*
X3143504Y3688029D01*
X3147568Y3686352D01*
X3151784Y3685032D01*
X3156051Y3684066D01*
X3160420Y3683508D01*
X3165043Y3683304D01*
X3232251Y3683304D01*
X3235960Y3682593D01*
X3239160Y3680612D01*
X3241395Y3677564D01*
X3242411Y3673906D01*
X3242005Y3670198D01*
X3240633Y3665626D01*
X3239871Y3658209D01*
X3239871Y3479241D01*
X3240633Y3471824D01*
X3242614Y3465169D01*
X3245916Y3459022D01*
X3250336Y3453637D01*
X3255721Y3449218D01*
X3261817Y3445967D01*
X3268472Y3443935D01*
X3275888Y3443224D01*
X3289757Y3443224D01*
X3294024Y3442258D01*
X3297529Y3439617D01*
X3299561Y3435756D01*
X3299764Y3431336D01*
X3298139Y3427272D01*
X3294938Y3424326D01*
X3292601Y3422904D01*
X3280308Y3413556D01*
X3269234Y3402787D01*
X3259480Y3390747D01*
X3251200Y3377692D01*
X3244596Y3363722D01*
X3239617Y3349091D01*
X3236417Y3333953D01*
X3235045Y3318560D01*
X3235502Y3303117D01*
X3237788Y3287826D01*
X3241903Y3272891D01*
X3247694Y3258565D01*
X3255162Y3245053D01*
X3264153Y3232454D01*
X3274618Y3221075D01*
X3286302Y3210966D01*
X3299155Y3202330D01*
X3312871Y3195269D01*
X3327400Y3189884D01*
X3342436Y3186277D01*
X3357778Y3184448D01*
X3373221Y3184448D01*
X3388563Y3186277D01*
X3403600Y3189884D01*
X3418128Y3195269D01*
X3431844Y3202330D01*
X3444697Y3210966D01*
X3456381Y3221075D01*
X3466846Y3232454D01*
X3475837Y3245053D01*
X3483305Y3258565D01*
X3489096Y3272891D01*
X3493211Y3287826D01*
X3495497Y3303117D01*
X3495954Y3318560D01*
X3494582Y3333953D01*
X3491382Y3349091D01*
X3486404Y3363722D01*
X3479800Y3377692D01*
X3471519Y3390747D01*
X3461765Y3402787D01*
X3450691Y3413556D01*
X3438398Y3422904D01*
X3436061Y3424326D01*
X3432860Y3427272D01*
X3431235Y3431336D01*
X3431438Y3435756D01*
X3433470Y3439617D01*
X3436975Y3442258D01*
X3441242Y3443224D01*
X3454908Y3443224D01*
X3462324Y3443935D01*
X3468979Y3445967D01*
X3475075Y3449218D01*
X3480460Y3453637D01*
X3484879Y3459022D01*
X3488182Y3465169D01*
X3490163Y3471824D01*
X3490925Y3479241D01*
X3490925Y3658209D01*
X3490163Y3665626D01*
X3488791Y3670198D01*
X3488385Y3673906D01*
X3489401Y3677564D01*
X3491636Y3680612D01*
X3494836Y3682593D01*
X3498545Y3683304D01*
X3918051Y3683304D01*
X3921760Y3682593D01*
X3924960Y3680612D01*
X3927195Y3677564D01*
X3928211Y3673906D01*
X3927805Y3670198D01*
X3926433Y3665626D01*
X3925671Y3658209D01*
X3925671Y3479241D01*
X3926433Y3471824D01*
X3928414Y3465169D01*
X3931716Y3459022D01*
X3936136Y3453637D01*
X3941521Y3449218D01*
X3947617Y3445967D01*
X3954272Y3443935D01*
X3961688Y3443224D01*
X3975557Y3443224D01*
X3979824Y3442258D01*
X3983329Y3439617D01*
X3985361Y3435756D01*
X3985564Y3431336D01*
X3983939Y3427272D01*
X3980738Y3424326D01*
X3978401Y3422954D01*
X3966108Y3413556D01*
X3955034Y3402787D01*
X3945280Y3390798D01*
X3937000Y3377692D01*
X3930396Y3363722D01*
X3925417Y3349091D01*
X3922217Y3333953D01*
X3920845Y3318560D01*
X3921302Y3303117D01*
X3923588Y3287826D01*
X3927703Y3272891D01*
X3933494Y3258565D01*
X3940962Y3245053D01*
X3949954Y3232454D01*
X3960418Y3221075D01*
X3972102Y3210966D01*
X3984955Y3202330D01*
X3998671Y3195269D01*
X4013200Y3189884D01*
X4028236Y3186277D01*
X4043578Y3184448D01*
X4059021Y3184448D01*
X4074363Y3186277D01*
X4089400Y3189884D01*
X4103928Y3195269D01*
X4117644Y3202330D01*
X4130497Y3210966D01*
X4142181Y3221075D01*
X4152646Y3232454D01*
X4161637Y3245053D01*
X4169105Y3258565D01*
X4174896Y3272891D01*
X4179011Y3287826D01*
X4181297Y3303117D01*
X4181754Y3318560D01*
X4180382Y3333953D01*
X4177182Y3349091D01*
X4172204Y3363722D01*
X4165600Y3377692D01*
X4157319Y3390798D01*
X4147565Y3402787D01*
X4136491Y3413556D01*
X4124198Y3422954D01*
X4121861Y3424326D01*
X4118660Y3427272D01*
X4117035Y3431336D01*
X4117238Y3435756D01*
X4119270Y3439617D01*
X4122775Y3442258D01*
X4127042Y3443224D01*
X4140708Y3443224D01*
X4148124Y3443935D01*
X4154779Y3445967D01*
X4160875Y3449218D01*
X4166260Y3453637D01*
X4170679Y3459022D01*
X4173982Y3465169D01*
X4175963Y3471824D01*
X4176725Y3479241D01*
X4176725Y3658209D01*
X4175963Y3665626D01*
X4174591Y3670198D01*
X4174185Y3673906D01*
X4175201Y3677564D01*
X4177436Y3680612D01*
X4180636Y3682593D01*
X4184345Y3683304D01*
X4603902Y3683304D01*
X4607560Y3682593D01*
X4610760Y3680612D01*
X4612995Y3677564D01*
X4614011Y3673906D01*
X4613605Y3670198D01*
X4612233Y3665626D01*
X4611471Y3658209D01*
X4611471Y3479190D01*
X4612233Y3471773D01*
X4614214Y3465118D01*
X4617516Y3459022D01*
X4621936Y3453637D01*
X4627321Y3449218D01*
X4633417Y3445967D01*
X4640072Y3443935D01*
X4647488Y3443224D01*
X4661357Y3443224D01*
X4665624Y3442258D01*
X4669129Y3439617D01*
X4671161Y3435705D01*
X4671364Y3431336D01*
X4669739Y3427272D01*
X4666538Y3424275D01*
X4664202Y3422904D01*
X4651908Y3413556D01*
X4640834Y3402787D01*
X4631080Y3390747D01*
X4622800Y3377692D01*
X4616196Y3363722D01*
X4611217Y3349091D01*
X4608017Y3333953D01*
X4606645Y3318560D01*
X4607102Y3303117D01*
X4609388Y3287826D01*
X4613503Y3272891D01*
X4619294Y3258565D01*
X4626762Y3245053D01*
X4635754Y3232454D01*
X4646218Y3221075D01*
X4657902Y3210966D01*
X4670755Y3202330D01*
X4684471Y3195269D01*
X4699000Y3189884D01*
X4714036Y3186277D01*
X4729378Y3184448D01*
X4744821Y3184448D01*
X4760163Y3186277D01*
X4775200Y3189884D01*
X4789728Y3195269D01*
X4803444Y3202330D01*
X4816297Y3210966D01*
X4827981Y3221075D01*
X4838446Y3232454D01*
X4847437Y3245053D01*
X4854905Y3258565D01*
X4860696Y3272891D01*
X4864811Y3287826D01*
X4867097Y3303117D01*
X4867554Y3318560D01*
X4866182Y3333953D01*
X4862982Y3349091D01*
X4858004Y3363722D01*
X4851400Y3377692D01*
X4843119Y3390747D01*
X4833366Y3402787D01*
X4822291Y3413556D01*
X4809998Y3422904D01*
X4807661Y3424275D01*
X4804460Y3427272D01*
X4802835Y3431336D01*
X4803038Y3435705D01*
X4805070Y3439617D01*
X4808575Y3442258D01*
X4812842Y3443224D01*
X4826508Y3443224D01*
X4833924Y3443935D01*
X4840579Y3445967D01*
X4846675Y3449218D01*
X4852060Y3453637D01*
X4856480Y3459022D01*
X4859782Y3465118D01*
X4861763Y3471773D01*
X4862525Y3479190D01*
X4862525Y3658209D01*
X4861763Y3665626D01*
X4860391Y3670198D01*
X4859985Y3673906D01*
X4861001Y3677564D01*
X4863236Y3680612D01*
X4866436Y3682593D01*
X4870094Y3683304D01*
X5171440Y3683304D01*
X5175351Y3682492D01*
X5178602Y3680307D01*
X5180838Y3677005D01*
X5181600Y3673144D01*
X5181600Y2835198D01*
X5180838Y2831287D01*
X5178653Y2828036D01*
X5175351Y2825800D01*
X5171440Y2825038D01*
G37*

%LPC*%
G36*
X80111Y5771337D02*
G01*
X146862Y5771337D01*
X146862Y5837986D01*
X142392Y5836056D01*
X128727Y5828182D01*
X116128Y5818784D01*
X104648Y5807964D01*
X94538Y5795924D01*
X85852Y5782716D01*
G37*
G36*
X1367485Y2892602D02*
G01*
X1367485Y2946400D01*
X1313789Y2946400D01*
X1318209Y2936951D01*
X1325422Y2925622D01*
X1334058Y2915412D01*
X1344015Y2906369D01*
X1355090Y2898800D01*
G37*
G36*
X1313840Y3024124D02*
G01*
X1367485Y3024124D01*
X1367485Y3078429D01*
X1367840Y3080004D01*
X1366469Y3078073D01*
X1363319Y3075940D01*
X1360982Y3074924D01*
X1349451Y3068116D01*
X1338884Y3059785D01*
X1329588Y3050133D01*
X1321612Y3039313D01*
X1315161Y3027527D01*
G37*
G36*
X1445158Y3024124D02*
G01*
X1498803Y3024124D01*
X1497482Y3027527D01*
X1491030Y3039313D01*
X1483055Y3050133D01*
X1473708Y3059785D01*
X1463192Y3068116D01*
X1451610Y3074924D01*
X1449324Y3075940D01*
X1446123Y3078073D01*
X1444802Y3080004D01*
X1445158Y3078429D01*
G37*
G36*
X1369212Y3083763D02*
G01*
X1371193Y3086252D01*
X1375206Y3088284D01*
X1379626Y3088386D01*
X1392936Y3085642D01*
X1406296Y3084779D01*
X1419707Y3085642D01*
X1432966Y3088386D01*
X1437436Y3088284D01*
X1441450Y3086252D01*
X1443380Y3083763D01*
X1443126Y3084931D01*
X1443736Y3088690D01*
X1445666Y3091992D01*
X1448714Y3094329D01*
X1457502Y3098800D01*
X1468577Y3106369D01*
X1478534Y3115411D01*
X1487220Y3125622D01*
X1494434Y3136950D01*
X1500073Y3149142D01*
X1504035Y3161944D01*
X1506270Y3175203D01*
X1506728Y3188614D01*
X1505407Y3201974D01*
X1502308Y3215030D01*
X1497482Y3227527D01*
X1491030Y3239312D01*
X1483055Y3250133D01*
X1473708Y3259785D01*
X1463192Y3268116D01*
X1451610Y3274923D01*
X1439265Y3280156D01*
X1432306Y3282086D01*
X1429867Y3283102D01*
X1427784Y3284728D01*
X1139698Y3572814D01*
X1137970Y3575151D01*
X1136954Y3577844D01*
X1136142Y3581603D01*
X1131874Y3593033D01*
X1126032Y3603751D01*
X1118311Y3614064D01*
X1115161Y3619906D01*
X1107541Y3630980D01*
X1098550Y3640937D01*
X1088288Y3649624D01*
X1077010Y3656837D01*
X1064818Y3662476D01*
X1052017Y3666439D01*
X1038758Y3668674D01*
X1025347Y3669131D01*
X1011986Y3667810D01*
X998931Y3664661D01*
X986383Y3659835D01*
X974648Y3653383D01*
X963828Y3645458D01*
X954176Y3636111D01*
X945845Y3625545D01*
X939037Y3614013D01*
X933754Y3601669D01*
X930249Y3588715D01*
X928420Y3575405D01*
X928420Y3561994D01*
X930249Y3548684D01*
X933754Y3535730D01*
X939037Y3523386D01*
X945845Y3511804D01*
X954176Y3501288D01*
X963828Y3491941D01*
X974648Y3484016D01*
X986383Y3477564D01*
X995273Y3474110D01*
X998829Y3471824D01*
X1306728Y3163925D01*
X1308252Y3161995D01*
X1309268Y3159760D01*
X1312519Y3149142D01*
X1318209Y3136950D01*
X1325422Y3125622D01*
X1334058Y3115411D01*
X1344015Y3106369D01*
X1355090Y3098800D01*
X1363929Y3094329D01*
X1366926Y3091992D01*
X1368907Y3088690D01*
X1369466Y3084931D01*
G37*
G36*
X3200400Y9287306D02*
G01*
X3214674Y9288221D01*
X3228746Y9290964D01*
X3242310Y9295485D01*
X3255213Y9301683D01*
X3267202Y9309506D01*
X3278124Y9318752D01*
X3287725Y9329369D01*
X3295904Y9341104D01*
X3302508Y9353804D01*
X3307486Y9367215D01*
X3310636Y9381185D01*
X3312007Y9395409D01*
X3311550Y9409734D01*
X3309264Y9423857D01*
X3305200Y9437573D01*
X3299409Y9450679D01*
X3291992Y9462922D01*
X3283102Y9474098D01*
X3272790Y9484055D01*
X3261309Y9492589D01*
X3248863Y9499650D01*
X3235604Y9504984D01*
X3221736Y9508642D01*
X3207969Y9510420D01*
X3203905Y9511893D01*
X3200806Y9514890D01*
X3199993Y9514890D01*
X3196894Y9511893D01*
X3192830Y9510420D01*
X3179064Y9508642D01*
X3165195Y9504984D01*
X3151936Y9499650D01*
X3139490Y9492589D01*
X3128010Y9484055D01*
X3117697Y9474098D01*
X3108807Y9462922D01*
X3101390Y9450679D01*
X3095599Y9437573D01*
X3091535Y9423857D01*
X3089249Y9409734D01*
X3088792Y9395409D01*
X3090164Y9381185D01*
X3093313Y9367215D01*
X3098292Y9353804D01*
X3104896Y9341104D01*
X3113074Y9329369D01*
X3122676Y9318752D01*
X3133598Y9309506D01*
X3145586Y9301683D01*
X3158490Y9295485D01*
X3172053Y9290964D01*
X3186125Y9288221D01*
G37*
G36*
X3244850Y8933434D02*
G01*
X3302609Y8933434D01*
X3299409Y8940647D01*
X3291992Y8952890D01*
X3283102Y8964066D01*
X3272790Y8974023D01*
X3261309Y8982608D01*
X3248863Y8989618D01*
X3244850Y8991244D01*
G37*
G36*
X2671978Y3184448D02*
G01*
X2687421Y3184448D01*
X2702763Y3186277D01*
X2717800Y3189884D01*
X2732328Y3195269D01*
X2746044Y3202330D01*
X2758897Y3210966D01*
X2770581Y3221075D01*
X2781046Y3232454D01*
X2790037Y3245053D01*
X2797505Y3258565D01*
X2803296Y3272891D01*
X2807411Y3287826D01*
X2809697Y3303117D01*
X2810154Y3318560D01*
X2808782Y3333953D01*
X2805582Y3349091D01*
X2800604Y3363722D01*
X2794000Y3377692D01*
X2785719Y3390747D01*
X2775966Y3402787D01*
X2764891Y3413556D01*
X2752598Y3422904D01*
X2750261Y3424275D01*
X2747060Y3427272D01*
X2745435Y3431336D01*
X2745638Y3435705D01*
X2747670Y3439617D01*
X2751175Y3442258D01*
X2755442Y3443224D01*
X2769108Y3443224D01*
X2776524Y3443935D01*
X2783179Y3445967D01*
X2789275Y3449218D01*
X2794660Y3453637D01*
X2799080Y3459022D01*
X2802382Y3465169D01*
X2804363Y3471824D01*
X2805125Y3479241D01*
X2805125Y3658209D01*
X2804363Y3665626D01*
X2802382Y3672281D01*
X2799080Y3678428D01*
X2794660Y3683812D01*
X2789275Y3688181D01*
X2783179Y3691483D01*
X2776524Y3693515D01*
X2769108Y3694226D01*
X2590088Y3694226D01*
X2582672Y3693515D01*
X2576017Y3691483D01*
X2569921Y3688181D01*
X2564536Y3683812D01*
X2560116Y3678428D01*
X2556814Y3672281D01*
X2554833Y3665626D01*
X2554071Y3658209D01*
X2554071Y3479241D01*
X2554833Y3471824D01*
X2556814Y3465169D01*
X2560116Y3459022D01*
X2564536Y3453637D01*
X2569921Y3449218D01*
X2576017Y3445967D01*
X2582672Y3443935D01*
X2590088Y3443224D01*
X2603957Y3443224D01*
X2608224Y3442258D01*
X2611729Y3439617D01*
X2613761Y3435705D01*
X2613964Y3431336D01*
X2612339Y3427272D01*
X2609138Y3424275D01*
X2606802Y3422904D01*
X2594508Y3413556D01*
X2583688Y3403041D01*
X2580436Y3400907D01*
X2576626Y3400196D01*
X2503474Y3400196D01*
X2499563Y3400958D01*
X2496261Y3403142D01*
X2425293Y3474161D01*
X2423058Y3477463D01*
X2422296Y3481324D01*
X2422296Y4114596D01*
X2422093Y4120896D01*
X2421432Y4126992D01*
X2420366Y4132986D01*
X2418842Y4138879D01*
X2416911Y4144670D01*
X2414574Y4150309D01*
X2411831Y4155795D01*
X2408732Y4161028D01*
X2405227Y4166057D01*
X2401417Y4170781D01*
X2397150Y4175404D01*
X1701698Y4870856D01*
X1697075Y4875123D01*
X1692351Y4878933D01*
X1687322Y4882438D01*
X1682089Y4885537D01*
X1676603Y4888280D01*
X1670964Y4890617D01*
X1665173Y4892548D01*
X1659280Y4894072D01*
X1653286Y4895138D01*
X1647189Y4895799D01*
X1640890Y4896002D01*
X1618030Y4896002D01*
X1614322Y4896713D01*
X1598574Y4907991D01*
X1585874Y4915001D01*
X1572412Y4920335D01*
X1558340Y4923942D01*
X1543964Y4925771D01*
X1529435Y4925771D01*
X1515059Y4923942D01*
X1500987Y4920335D01*
X1487525Y4915001D01*
X1474825Y4907991D01*
X1463090Y4899507D01*
X1452524Y4889550D01*
X1443278Y4878374D01*
X1435506Y4866132D01*
X1429308Y4853025D01*
X1424838Y4839208D01*
X1422146Y4824984D01*
X1421231Y4810506D01*
X1422146Y4796028D01*
X1424838Y4781804D01*
X1429308Y4767986D01*
X1435506Y4754880D01*
X1443278Y4742637D01*
X1452524Y4731461D01*
X1463090Y4721504D01*
X1474825Y4712970D01*
X1487525Y4706010D01*
X1500987Y4700676D01*
X1515059Y4697069D01*
X1529435Y4695240D01*
X1543964Y4695240D01*
X1558340Y4697069D01*
X1572412Y4700676D01*
X1585874Y4706010D01*
X1598574Y4712970D01*
X1602638Y4715916D01*
X1605838Y4717491D01*
X1609394Y4717846D01*
X1612849Y4716932D01*
X1615795Y4714900D01*
X2248306Y4082338D01*
X2250541Y4079036D01*
X2251303Y4075176D01*
X2251303Y3441903D01*
X2251506Y3435604D01*
X2252167Y3429508D01*
X2253234Y3423513D01*
X2254758Y3417620D01*
X2256688Y3411829D01*
X2259025Y3406190D01*
X2261768Y3400704D01*
X2264867Y3395472D01*
X2268372Y3390442D01*
X2272182Y3385718D01*
X2276449Y3381095D01*
X2403246Y3254349D01*
X2407818Y3250031D01*
X2412593Y3246221D01*
X2417622Y3242767D01*
X2422855Y3239617D01*
X2428290Y3236874D01*
X2433929Y3234537D01*
X2439720Y3232658D01*
X2445664Y3231134D01*
X2451658Y3230067D01*
X2457704Y3229406D01*
X2464003Y3229152D01*
X2576931Y3229152D01*
X2580995Y3228289D01*
X2584399Y3225850D01*
X2588818Y3221075D01*
X2600502Y3210966D01*
X2613355Y3202330D01*
X2627071Y3195269D01*
X2641600Y3189884D01*
X2656636Y3186277D01*
G37*
G36*
X3098190Y8933434D02*
G01*
X3155950Y8933434D01*
X3155950Y8991244D01*
X3151936Y8989618D01*
X3139490Y8982608D01*
X3128010Y8974023D01*
X3117697Y8964066D01*
X3108807Y8952890D01*
X3101390Y8940647D01*
G37*
G36*
X3155950Y8786672D02*
G01*
X3155950Y8844534D01*
X3097987Y8844534D01*
X3104896Y8831122D01*
X3113074Y8819337D01*
X3122676Y8808770D01*
X3133598Y8799474D01*
X3145586Y8791702D01*
G37*
G36*
X3244850Y8786672D02*
G01*
X3255213Y8791702D01*
X3267202Y8799474D01*
X3278124Y8808770D01*
X3287725Y8819337D01*
X3295904Y8831122D01*
X3302812Y8844534D01*
X3244850Y8844534D01*
G37*
G36*
X3200400Y8220506D02*
G01*
X3214674Y8221421D01*
X3228746Y8224164D01*
X3242310Y8228685D01*
X3255213Y8234883D01*
X3267202Y8242706D01*
X3278124Y8251952D01*
X3287725Y8262569D01*
X3295904Y8274303D01*
X3302508Y8287003D01*
X3307486Y8300415D01*
X3310636Y8314385D01*
X3312007Y8328609D01*
X3311550Y8342934D01*
X3309264Y8357057D01*
X3305200Y8370773D01*
X3299409Y8383879D01*
X3291992Y8396122D01*
X3283102Y8407298D01*
X3272790Y8417255D01*
X3261309Y8425789D01*
X3248863Y8432850D01*
X3235604Y8438184D01*
X3221736Y8441842D01*
X3207562Y8443671D01*
X3193237Y8443671D01*
X3179064Y8441842D01*
X3165195Y8438184D01*
X3151936Y8432850D01*
X3139490Y8425789D01*
X3128010Y8417255D01*
X3117697Y8407298D01*
X3108807Y8396122D01*
X3101390Y8383879D01*
X3095599Y8370773D01*
X3091535Y8357057D01*
X3089249Y8342934D01*
X3088792Y8328609D01*
X3090164Y8314385D01*
X3093313Y8300415D01*
X3098292Y8287003D01*
X3104896Y8274303D01*
X3113074Y8262569D01*
X3122676Y8251952D01*
X3133598Y8242706D01*
X3145586Y8234883D01*
X3158490Y8228685D01*
X3172053Y8224164D01*
X3186125Y8221421D01*
G37*
G36*
X1067562Y3704793D02*
G01*
X1077010Y3709162D01*
X1088288Y3716375D01*
X1098550Y3725062D01*
X1107541Y3735019D01*
X1115161Y3746093D01*
X1121359Y3758437D01*
X1067562Y3758437D01*
G37*
G36*
X989837Y3704844D02*
G01*
X989837Y3758437D01*
X936244Y3758437D01*
X939037Y3751986D01*
X945845Y3740404D01*
X954176Y3729888D01*
X963828Y3720541D01*
X974648Y3712616D01*
X986383Y3706164D01*
G37*
G36*
X3619500Y8101584D02*
G01*
X3634638Y8102498D01*
X3649522Y8105190D01*
X3664000Y8109712D01*
X3677818Y8115960D01*
X3690772Y8123783D01*
X3702710Y8133130D01*
X3713429Y8143849D01*
X3722776Y8155787D01*
X3730599Y8168741D01*
X3737203Y8183575D01*
X3739438Y8186724D01*
X3742690Y8188858D01*
X3746500Y8189569D01*
X3750310Y8188858D01*
X3753561Y8186724D01*
X3755796Y8183575D01*
X3762400Y8168741D01*
X3770223Y8155787D01*
X3779570Y8143849D01*
X3790289Y8133130D01*
X3802227Y8123783D01*
X3815181Y8115960D01*
X3828999Y8109712D01*
X3843477Y8105190D01*
X3858361Y8102498D01*
X3873500Y8101584D01*
X3888638Y8102498D01*
X3903522Y8105190D01*
X3918000Y8109712D01*
X3931818Y8115960D01*
X3944772Y8123783D01*
X3956710Y8133130D01*
X3967429Y8143849D01*
X3976776Y8155787D01*
X3984599Y8168741D01*
X3990848Y8182559D01*
X3995318Y8197037D01*
X3998061Y8211921D01*
X3998976Y8227059D01*
X3998061Y8242198D01*
X3995318Y8257082D01*
X3990848Y8271560D01*
X3984599Y8285378D01*
X3976776Y8298332D01*
X3967429Y8310270D01*
X3956710Y8320989D01*
X3944772Y8330336D01*
X3931818Y8338159D01*
X3918000Y8344408D01*
X3903522Y8348878D01*
X3888638Y8351621D01*
X3873500Y8352536D01*
X3858361Y8351621D01*
X3843477Y8348878D01*
X3828999Y8344408D01*
X3815181Y8338159D01*
X3802227Y8330336D01*
X3790289Y8320989D01*
X3779570Y8310270D01*
X3770223Y8298332D01*
X3762400Y8285378D01*
X3755796Y8270544D01*
X3753561Y8267395D01*
X3750310Y8265261D01*
X3746500Y8264550D01*
X3742690Y8265261D01*
X3739438Y8267395D01*
X3737203Y8270544D01*
X3730599Y8285378D01*
X3722776Y8298332D01*
X3713429Y8310270D01*
X3702710Y8320989D01*
X3690772Y8330336D01*
X3677818Y8338159D01*
X3664000Y8344408D01*
X3649522Y8348878D01*
X3634638Y8351621D01*
X3619500Y8352536D01*
X3604361Y8351621D01*
X3589477Y8348878D01*
X3574999Y8344408D01*
X3561181Y8338159D01*
X3548227Y8330336D01*
X3536289Y8320989D01*
X3525570Y8310270D01*
X3516223Y8298332D01*
X3508400Y8285378D01*
X3502151Y8271560D01*
X3497681Y8257082D01*
X3494938Y8242198D01*
X3494024Y8227059D01*
X3494938Y8211921D01*
X3497681Y8197037D01*
X3502151Y8182559D01*
X3508400Y8168741D01*
X3516223Y8155787D01*
X3525570Y8143849D01*
X3536289Y8133130D01*
X3548227Y8123783D01*
X3561181Y8115960D01*
X3574999Y8109712D01*
X3589477Y8105190D01*
X3604361Y8102498D01*
G37*
G36*
X936244Y3836162D02*
G01*
X989837Y3836162D01*
X989837Y3889756D01*
X986383Y3888435D01*
X974648Y3881983D01*
X963828Y3874058D01*
X954176Y3864711D01*
X945845Y3854145D01*
X939037Y3842613D01*
G37*
G36*
X1067562Y3836162D02*
G01*
X1121359Y3836162D01*
X1115161Y3848506D01*
X1107541Y3859580D01*
X1098550Y3869537D01*
X1088288Y3878224D01*
X1077010Y3885437D01*
X1067562Y3889806D01*
G37*
G36*
X3200400Y7966506D02*
G01*
X3214674Y7967421D01*
X3228746Y7970164D01*
X3242310Y7974685D01*
X3255213Y7980883D01*
X3267202Y7988706D01*
X3278124Y7997952D01*
X3287725Y8008569D01*
X3295904Y8020303D01*
X3302508Y8033003D01*
X3307486Y8046415D01*
X3310636Y8060385D01*
X3312007Y8074609D01*
X3311550Y8088934D01*
X3309264Y8103057D01*
X3305200Y8116773D01*
X3299409Y8129879D01*
X3291992Y8142122D01*
X3283102Y8153298D01*
X3272790Y8163255D01*
X3261309Y8171789D01*
X3248863Y8178850D01*
X3235604Y8184184D01*
X3221736Y8187842D01*
X3207562Y8189671D01*
X3193237Y8189671D01*
X3179064Y8187842D01*
X3165195Y8184184D01*
X3151936Y8178850D01*
X3139490Y8171789D01*
X3128010Y8163255D01*
X3117697Y8153298D01*
X3108807Y8142122D01*
X3101390Y8129879D01*
X3095599Y8116773D01*
X3091535Y8103057D01*
X3089249Y8088934D01*
X3088792Y8074609D01*
X3090164Y8060385D01*
X3093313Y8046415D01*
X3098292Y8033003D01*
X3104896Y8020303D01*
X3113074Y8008569D01*
X3122676Y7997952D01*
X3133598Y7988706D01*
X3145586Y7980883D01*
X3158490Y7974685D01*
X3172053Y7970164D01*
X3186125Y7967421D01*
G37*
G36*
X1025347Y3925468D02*
G01*
X1038758Y3925925D01*
X1052017Y3928160D01*
X1064818Y3932123D01*
X1077010Y3937762D01*
X1088288Y3944975D01*
X1098550Y3953662D01*
X1107541Y3963619D01*
X1115161Y3974693D01*
X1121206Y3986682D01*
X1125626Y3999331D01*
X1128268Y4012488D01*
X1129182Y4025900D01*
X1128268Y4039311D01*
X1125626Y4052468D01*
X1121206Y4065117D01*
X1115161Y4077106D01*
X1107541Y4088180D01*
X1098550Y4098137D01*
X1088288Y4106824D01*
X1077010Y4114037D01*
X1064818Y4119676D01*
X1052017Y4123639D01*
X1038758Y4125874D01*
X1025347Y4126331D01*
X1011986Y4125010D01*
X998931Y4121861D01*
X986383Y4117035D01*
X974648Y4110583D01*
X963828Y4102658D01*
X954176Y4093311D01*
X945845Y4082745D01*
X939037Y4071213D01*
X933754Y4058869D01*
X930249Y4045915D01*
X928420Y4032605D01*
X928420Y4019194D01*
X930249Y4005884D01*
X933754Y3992930D01*
X939037Y3980586D01*
X945845Y3969004D01*
X954176Y3958488D01*
X963828Y3949141D01*
X974648Y3941216D01*
X986383Y3934764D01*
X998931Y3929938D01*
X1011986Y3926789D01*
G37*
G36*
X3098190Y7866634D02*
G01*
X3155950Y7866634D01*
X3155950Y7924444D01*
X3151936Y7922818D01*
X3139490Y7915808D01*
X3128010Y7907223D01*
X3117697Y7897266D01*
X3108807Y7886090D01*
X3101390Y7873847D01*
G37*
G36*
X3244850Y7866634D02*
G01*
X3302609Y7866634D01*
X3299409Y7873847D01*
X3291992Y7886090D01*
X3283102Y7897266D01*
X3272790Y7907223D01*
X3261309Y7915808D01*
X3248863Y7922818D01*
X3244850Y7924444D01*
G37*
G36*
X1583029Y4354880D02*
G01*
X1585874Y4355998D01*
X1598574Y4362958D01*
X1610309Y4371492D01*
X1620875Y4381449D01*
X1630121Y4392625D01*
X1637893Y4404868D01*
X1642262Y4414164D01*
X1583029Y4414164D01*
G37*
G36*
X1490370Y4354880D02*
G01*
X1490370Y4414164D01*
X1431137Y4414164D01*
X1435506Y4404868D01*
X1443278Y4392625D01*
X1452524Y4381449D01*
X1463090Y4371492D01*
X1474825Y4362958D01*
X1487525Y4355998D01*
G37*
G36*
X3155950Y7719872D02*
G01*
X3155950Y7777734D01*
X3097987Y7777734D01*
X3104896Y7764322D01*
X3113074Y7752537D01*
X3122676Y7741970D01*
X3133598Y7732674D01*
X3145586Y7724902D01*
G37*
G36*
X3244850Y7719872D02*
G01*
X3255213Y7724902D01*
X3267202Y7732674D01*
X3278124Y7741970D01*
X3287725Y7752537D01*
X3295904Y7764322D01*
X3302812Y7777734D01*
X3244850Y7777734D01*
G37*
G36*
X1431137Y4506823D02*
G01*
X1490370Y4506823D01*
X1490370Y4566107D01*
X1487525Y4564989D01*
X1474825Y4557979D01*
X1463090Y4549495D01*
X1452524Y4539538D01*
X1443278Y4528362D01*
X1435506Y4516120D01*
G37*
G36*
X1583029Y4506823D02*
G01*
X1642262Y4506823D01*
X1637893Y4516120D01*
X1630121Y4528362D01*
X1620875Y4539538D01*
X1610309Y4549495D01*
X1598574Y4557979D01*
X1585874Y4564989D01*
X1583029Y4566107D01*
G37*
G36*
X2692400Y7422032D02*
G01*
X2703525Y7422896D01*
X2714345Y7425486D01*
X2724607Y7429753D01*
X2734106Y7435596D01*
X2742590Y7442809D01*
X2749804Y7451293D01*
X2755646Y7460792D01*
X2759913Y7471054D01*
X2762504Y7481874D01*
X2763062Y7488783D01*
X2763926Y7492238D01*
X2766009Y7495133D01*
X2811932Y7541107D01*
X2815234Y7543292D01*
X2819146Y7544104D01*
X2882696Y7544104D01*
X2887319Y7544308D01*
X2891688Y7544866D01*
X2895955Y7545831D01*
X2900172Y7547152D01*
X2904236Y7548829D01*
X2908147Y7550861D01*
X2911856Y7553248D01*
X2915361Y7555890D01*
X2918764Y7559040D01*
X2994660Y7634935D01*
X2997809Y7638338D01*
X3000451Y7641844D01*
X3002838Y7645552D01*
X3004870Y7649464D01*
X3006547Y7653528D01*
X3007868Y7657744D01*
X3008833Y7662011D01*
X3009392Y7666380D01*
X3009595Y7671003D01*
X3009595Y9042654D01*
X3010408Y9046565D01*
X3012592Y9049867D01*
X3054248Y9091523D01*
X3057550Y9093708D01*
X3061462Y9094520D01*
X3094888Y9094520D01*
X3098495Y9093860D01*
X3101644Y9091930D01*
X3103880Y9089034D01*
X3104896Y9087104D01*
X3113074Y9075369D01*
X3122676Y9064752D01*
X3133598Y9055506D01*
X3145586Y9047683D01*
X3158490Y9041485D01*
X3172053Y9036964D01*
X3186125Y9034221D01*
X3200400Y9033306D01*
X3214674Y9034221D01*
X3228746Y9036964D01*
X3242310Y9041485D01*
X3255213Y9047683D01*
X3267202Y9055506D01*
X3278124Y9064752D01*
X3287725Y9075369D01*
X3295904Y9087104D01*
X3302508Y9099804D01*
X3307486Y9113215D01*
X3310636Y9127185D01*
X3312007Y9141409D01*
X3311550Y9155734D01*
X3309264Y9169857D01*
X3305200Y9183573D01*
X3299409Y9196679D01*
X3291992Y9208922D01*
X3283102Y9220098D01*
X3272790Y9230055D01*
X3261309Y9238589D01*
X3248863Y9245650D01*
X3235604Y9250984D01*
X3221736Y9254642D01*
X3207562Y9256471D01*
X3193237Y9256471D01*
X3179064Y9254642D01*
X3165195Y9250984D01*
X3151936Y9245650D01*
X3139490Y9238589D01*
X3128010Y9230055D01*
X3117697Y9220098D01*
X3108807Y9208922D01*
X3103676Y9200438D01*
X3101390Y9197797D01*
X3098393Y9196120D01*
X3094990Y9195511D01*
X3036519Y9195511D01*
X3031896Y9195308D01*
X3027527Y9194749D01*
X3023260Y9193784D01*
X3019044Y9192463D01*
X3014980Y9190786D01*
X3011068Y9188754D01*
X3007360Y9186367D01*
X3003854Y9183725D01*
X3000451Y9180576D01*
X2923540Y9103664D01*
X2920390Y9100261D01*
X2917748Y9096756D01*
X2915361Y9093047D01*
X2913329Y9089136D01*
X2911652Y9085072D01*
X2910332Y9080855D01*
X2909366Y9076588D01*
X2908808Y9072219D01*
X2908604Y9067596D01*
X2908604Y7695946D01*
X2907842Y7692034D01*
X2905607Y7688732D01*
X2864967Y7648092D01*
X2861665Y7645857D01*
X2857754Y7645095D01*
X2794203Y7645095D01*
X2789580Y7644892D01*
X2785211Y7644333D01*
X2780944Y7643368D01*
X2776728Y7642047D01*
X2772664Y7640370D01*
X2768752Y7638338D01*
X2765044Y7635951D01*
X2761538Y7633309D01*
X2758135Y7630159D01*
X2694533Y7566609D01*
X2691638Y7564526D01*
X2688183Y7563662D01*
X2681274Y7563103D01*
X2670454Y7560513D01*
X2660192Y7556246D01*
X2650693Y7550403D01*
X2642209Y7543190D01*
X2634996Y7534706D01*
X2629154Y7525207D01*
X2624886Y7514945D01*
X2622296Y7504125D01*
X2621432Y7493000D01*
X2622296Y7481874D01*
X2624886Y7471054D01*
X2629154Y7460792D01*
X2634996Y7451293D01*
X2642209Y7442809D01*
X2650693Y7435596D01*
X2660192Y7429753D01*
X2670454Y7425486D01*
X2681274Y7422896D01*
G37*
G36*
X3937000Y7256932D02*
G01*
X3948125Y7257796D01*
X3958945Y7260386D01*
X3969207Y7264653D01*
X3978706Y7270496D01*
X3987190Y7277709D01*
X3994404Y7286193D01*
X4000246Y7295692D01*
X4004513Y7305954D01*
X4007104Y7316774D01*
X4007967Y7327900D01*
X4007459Y7334605D01*
X4008069Y7338872D01*
X4010406Y7342581D01*
X4112260Y7444435D01*
X4115409Y7447838D01*
X4118051Y7451344D01*
X4120438Y7455052D01*
X4122470Y7458964D01*
X4124147Y7463028D01*
X4125468Y7467244D01*
X4126433Y7471511D01*
X4126992Y7475880D01*
X4127195Y7480503D01*
X4127195Y8544356D01*
X4127855Y8547862D01*
X4129633Y8550960D01*
X4134104Y8556193D01*
X4139946Y8565692D01*
X4144213Y8575954D01*
X4146804Y8586774D01*
X4147667Y8597900D01*
X4146804Y8609025D01*
X4144213Y8619845D01*
X4139946Y8630107D01*
X4134104Y8639606D01*
X4126890Y8648090D01*
X4118406Y8655304D01*
X4108907Y8661146D01*
X4098645Y8665413D01*
X4087825Y8668004D01*
X4076700Y8668867D01*
X4065574Y8668004D01*
X4054754Y8665413D01*
X4044492Y8661146D01*
X4034993Y8655304D01*
X4026509Y8648090D01*
X4019296Y8639606D01*
X4013454Y8630107D01*
X4009186Y8619845D01*
X4006596Y8609025D01*
X4005732Y8597900D01*
X4006596Y8586774D01*
X4009186Y8575954D01*
X4013454Y8565692D01*
X4019296Y8556193D01*
X4023766Y8550960D01*
X4025544Y8547862D01*
X4026204Y8544356D01*
X4026204Y7505446D01*
X4025442Y7501534D01*
X4023207Y7498232D01*
X3924096Y7399121D01*
X3921861Y7397445D01*
X3919270Y7396429D01*
X3915054Y7395413D01*
X3904792Y7391146D01*
X3895293Y7385303D01*
X3886809Y7378090D01*
X3879596Y7369606D01*
X3873754Y7360107D01*
X3869486Y7349845D01*
X3866896Y7339025D01*
X3866032Y7327900D01*
X3866896Y7316774D01*
X3869486Y7305954D01*
X3873754Y7295692D01*
X3879596Y7286193D01*
X3886809Y7277709D01*
X3895293Y7270496D01*
X3904792Y7264653D01*
X3915054Y7260386D01*
X3925874Y7257796D01*
G37*
G36*
X1790700Y6505803D02*
G01*
X1802841Y6506667D01*
X1814779Y6509257D01*
X1826209Y6513525D01*
X1836928Y6519367D01*
X1846681Y6526682D01*
X1855317Y6535318D01*
X1862632Y6545072D01*
X1868474Y6555790D01*
X1872742Y6567220D01*
X1875332Y6579158D01*
X1876196Y6591300D01*
X1875332Y6603441D01*
X1872742Y6615379D01*
X1868474Y6626809D01*
X1862632Y6637528D01*
X1855317Y6647281D01*
X1846681Y6655917D01*
X1836928Y6663232D01*
X1826209Y6669074D01*
X1814779Y6673342D01*
X1802841Y6675932D01*
X1790700Y6676796D01*
X1778558Y6675932D01*
X1766620Y6673342D01*
X1755190Y6669074D01*
X1744472Y6663232D01*
X1734718Y6655917D01*
X1726082Y6647281D01*
X1718767Y6637528D01*
X1712925Y6626809D01*
X1708657Y6615379D01*
X1706067Y6603441D01*
X1705203Y6591300D01*
X1706067Y6579158D01*
X1708657Y6567220D01*
X1712925Y6555790D01*
X1718767Y6545072D01*
X1726082Y6535318D01*
X1734718Y6526682D01*
X1744472Y6519367D01*
X1755190Y6513525D01*
X1766620Y6509257D01*
X1778558Y6506667D01*
G37*
G36*
X2064308Y4770018D02*
G01*
X2078786Y4770018D01*
X2093214Y4771847D01*
X2107234Y4775454D01*
X2120747Y4780788D01*
X2133447Y4787747D01*
X2145182Y4796282D01*
X2155748Y4806188D01*
X2164994Y4817364D01*
X2172766Y4829606D01*
X2178913Y4842764D01*
X2183434Y4856530D01*
X2186127Y4870805D01*
X2187041Y4885283D01*
X2186127Y4899761D01*
X2183434Y4913985D01*
X2178913Y4927803D01*
X2172766Y4940909D01*
X2164994Y4953152D01*
X2155748Y4964328D01*
X2145182Y4974234D01*
X2133447Y4982768D01*
X2120747Y4989779D01*
X2107234Y4995113D01*
X2093214Y4998720D01*
X2078786Y5000548D01*
X2064308Y5000548D01*
X2049932Y4998720D01*
X2035860Y4995113D01*
X2022398Y4989779D01*
X2009648Y4982768D01*
X1997913Y4974234D01*
X1987346Y4964328D01*
X1978101Y4953152D01*
X1970328Y4940909D01*
X1964182Y4927803D01*
X1959711Y4913985D01*
X1956968Y4899761D01*
X1956054Y4885283D01*
X1956968Y4870805D01*
X1959711Y4856530D01*
X1964182Y4842764D01*
X1970328Y4829606D01*
X1978101Y4817364D01*
X1987346Y4806188D01*
X1997913Y4796282D01*
X2009648Y4787747D01*
X2022398Y4780788D01*
X2035860Y4775454D01*
X2049932Y4771847D01*
G37*
G36*
X2525217Y4779670D02*
G01*
X2525217Y4838903D01*
X2465984Y4838903D01*
X2470353Y4829606D01*
X2478125Y4817364D01*
X2487371Y4806188D01*
X2497937Y4796282D01*
X2509672Y4787747D01*
X2522372Y4780788D01*
G37*
G36*
X2617876Y4779670D02*
G01*
X2620721Y4780788D01*
X2633421Y4787747D01*
X2645156Y4796282D01*
X2655722Y4806188D01*
X2664968Y4817364D01*
X2672740Y4829606D01*
X2677109Y4838903D01*
X2617876Y4838903D01*
G37*
G36*
X3511346Y4882540D02*
G01*
X3524453Y4882540D01*
X3537458Y4884369D01*
X3550056Y4887874D01*
X3562096Y4893106D01*
X3573322Y4899914D01*
X3583482Y4908194D01*
X3592423Y4917795D01*
X3599992Y4928463D01*
X3605987Y4940147D01*
X3610406Y4952492D01*
X3613048Y4965344D01*
X3613962Y4978400D01*
X3613048Y4991455D01*
X3610406Y5004308D01*
X3605987Y5016652D01*
X3599992Y5028336D01*
X3592423Y5039004D01*
X3583482Y5048605D01*
X3573322Y5056886D01*
X3562096Y5063693D01*
X3550056Y5068925D01*
X3537458Y5072430D01*
X3524453Y5074259D01*
X3511346Y5074259D01*
X3498342Y5072430D01*
X3485743Y5068925D01*
X3473704Y5063693D01*
X3462477Y5056886D01*
X3452317Y5048605D01*
X3443376Y5039004D01*
X3435807Y5028336D01*
X3429812Y5016652D01*
X3425393Y5004308D01*
X3422751Y4991455D01*
X3421837Y4978400D01*
X3422751Y4965344D01*
X3425393Y4952492D01*
X3429812Y4940147D01*
X3435807Y4928463D01*
X3443376Y4917795D01*
X3452317Y4908194D01*
X3462477Y4899914D01*
X3473704Y4893106D01*
X3485743Y4887874D01*
X3498342Y4884369D01*
G37*
G36*
X3993946Y4882540D02*
G01*
X4007053Y4882540D01*
X4020058Y4884369D01*
X4032656Y4887874D01*
X4044696Y4893106D01*
X4055922Y4899914D01*
X4066082Y4908194D01*
X4075023Y4917795D01*
X4082592Y4928463D01*
X4088587Y4940147D01*
X4093006Y4952492D01*
X4095648Y4965344D01*
X4096562Y4978400D01*
X4095648Y4991455D01*
X4093006Y5004308D01*
X4088587Y5016652D01*
X4082592Y5028336D01*
X4075023Y5039004D01*
X4066082Y5048605D01*
X4055922Y5056886D01*
X4044696Y5063693D01*
X4032656Y5068925D01*
X4020058Y5072430D01*
X4007053Y5074259D01*
X3993946Y5074259D01*
X3980942Y5072430D01*
X3968343Y5068925D01*
X3956304Y5063693D01*
X3945077Y5056886D01*
X3934917Y5048605D01*
X3925976Y5039004D01*
X3918407Y5028336D01*
X3912412Y5016652D01*
X3907993Y5004308D01*
X3905351Y4991455D01*
X3904437Y4978400D01*
X3905351Y4965344D01*
X3907993Y4952492D01*
X3912412Y4940147D01*
X3918407Y4928463D01*
X3925976Y4917795D01*
X3934917Y4908194D01*
X3945077Y4899914D01*
X3956304Y4893106D01*
X3968343Y4887874D01*
X3980942Y4884369D01*
G37*
G36*
X2465984Y4931613D02*
G01*
X2525217Y4931613D01*
X2525217Y4990896D01*
X2522372Y4989779D01*
X2509672Y4982768D01*
X2497937Y4974234D01*
X2487371Y4964328D01*
X2478125Y4953152D01*
X2470353Y4940909D01*
G37*
G36*
X2617876Y4931613D02*
G01*
X2677109Y4931613D01*
X2672740Y4940909D01*
X2664968Y4953152D01*
X2655722Y4964328D01*
X2645156Y4974234D01*
X2633421Y4982768D01*
X2620721Y4989779D01*
X2617876Y4990896D01*
G37*
G36*
X763422Y5015534D02*
G01*
X777951Y5015534D01*
X792327Y5017363D01*
X806399Y5020970D01*
X819861Y5026304D01*
X832561Y5033264D01*
X844296Y5041798D01*
X854862Y5051755D01*
X864108Y5062931D01*
X871880Y5075174D01*
X878078Y5088280D01*
X882548Y5102098D01*
X885240Y5116322D01*
X886155Y5130800D01*
X885240Y5145278D01*
X882548Y5159502D01*
X878078Y5173319D01*
X871880Y5186426D01*
X864108Y5198668D01*
X854862Y5209844D01*
X844296Y5219801D01*
X832561Y5228285D01*
X819861Y5235295D01*
X806399Y5240629D01*
X792327Y5244236D01*
X777951Y5246065D01*
X763422Y5246065D01*
X749046Y5244236D01*
X734974Y5240629D01*
X721512Y5235295D01*
X708812Y5228285D01*
X697077Y5219801D01*
X686511Y5209844D01*
X677265Y5198668D01*
X669493Y5186426D01*
X663295Y5173319D01*
X658825Y5159502D01*
X656132Y5145278D01*
X655218Y5130800D01*
X656132Y5116322D01*
X658825Y5102098D01*
X663295Y5088280D01*
X669493Y5075174D01*
X677265Y5062931D01*
X686511Y5051755D01*
X697077Y5041798D01*
X708812Y5033264D01*
X721512Y5026304D01*
X734974Y5020970D01*
X749046Y5017363D01*
G37*
G36*
X224332Y5025186D02*
G01*
X224332Y5084470D01*
X165100Y5084470D01*
X169468Y5075174D01*
X177241Y5062931D01*
X186486Y5051755D01*
X197053Y5041798D01*
X208788Y5033264D01*
X221538Y5026304D01*
G37*
G36*
X317042Y5025186D02*
G01*
X319887Y5026304D01*
X332587Y5033264D01*
X344322Y5041798D01*
X354888Y5051755D01*
X364134Y5062931D01*
X371906Y5075174D01*
X376275Y5084470D01*
X317042Y5084470D01*
G37*
G36*
X165100Y5177129D02*
G01*
X224332Y5177129D01*
X224332Y5236413D01*
X221538Y5235295D01*
X208788Y5228285D01*
X197053Y5219801D01*
X186486Y5209844D01*
X177241Y5198668D01*
X169468Y5186426D01*
G37*
G36*
X317042Y5177129D02*
G01*
X376275Y5177129D01*
X371906Y5186426D01*
X364134Y5198668D01*
X354888Y5209844D01*
X344322Y5219801D01*
X332587Y5228285D01*
X319887Y5235295D01*
X317042Y5236413D01*
G37*
G36*
X1473200Y5579516D02*
G01*
X1488948Y5580430D01*
X1504442Y5583174D01*
X1519529Y5587695D01*
X1534007Y5593892D01*
X1547672Y5601817D01*
X1560271Y5611215D01*
X1571752Y5622036D01*
X1581861Y5634075D01*
X1590548Y5647232D01*
X1597609Y5661304D01*
X1602994Y5676138D01*
X1606651Y5691479D01*
X1608480Y5707126D01*
X1608480Y5722874D01*
X1606651Y5738520D01*
X1602994Y5753862D01*
X1597609Y5768644D01*
X1590548Y5782716D01*
X1581861Y5795924D01*
X1571752Y5807964D01*
X1560271Y5818784D01*
X1547672Y5828182D01*
X1534007Y5836056D01*
X1519529Y5842304D01*
X1504442Y5846826D01*
X1488948Y5849569D01*
X1473200Y5850483D01*
X1457452Y5849569D01*
X1441958Y5846826D01*
X1426870Y5842304D01*
X1412392Y5836056D01*
X1398727Y5828182D01*
X1386128Y5818784D01*
X1374648Y5807964D01*
X1364538Y5795924D01*
X1355852Y5782716D01*
X1348790Y5768644D01*
X1343406Y5753862D01*
X1339748Y5738520D01*
X1337919Y5722874D01*
X1337919Y5707126D01*
X1339748Y5691479D01*
X1343406Y5676138D01*
X1348790Y5661304D01*
X1355852Y5647232D01*
X1364538Y5634075D01*
X1374648Y5622036D01*
X1386128Y5611215D01*
X1398727Y5601817D01*
X1412392Y5593892D01*
X1426870Y5587695D01*
X1441958Y5583174D01*
X1457452Y5580430D01*
G37*
G36*
X259537Y5592013D02*
G01*
X264007Y5593892D01*
X277672Y5601817D01*
X290271Y5611215D01*
X301752Y5622036D01*
X311861Y5634075D01*
X320548Y5647232D01*
X326237Y5658662D01*
X259537Y5658662D01*
G37*
G36*
X146862Y5592013D02*
G01*
X146862Y5658662D01*
X80111Y5658662D01*
X85852Y5647232D01*
X94538Y5634075D01*
X104648Y5622036D01*
X116128Y5611215D01*
X128727Y5601817D01*
X142392Y5593892D01*
G37*
G36*
X1790700Y6251803D02*
G01*
X1802841Y6252667D01*
X1814779Y6255258D01*
X1826209Y6259525D01*
X1836928Y6265367D01*
X1846681Y6272682D01*
X1855317Y6281318D01*
X1862632Y6291072D01*
X1868474Y6301790D01*
X1872742Y6313220D01*
X1875332Y6325158D01*
X1876196Y6337300D01*
X1875332Y6349441D01*
X1872742Y6361379D01*
X1868474Y6372809D01*
X1862632Y6383528D01*
X1855317Y6393281D01*
X1846681Y6401917D01*
X1836928Y6409232D01*
X1826209Y6415074D01*
X1814779Y6419342D01*
X1802841Y6421932D01*
X1790700Y6422796D01*
X1778558Y6421932D01*
X1766620Y6419342D01*
X1755190Y6415074D01*
X1744472Y6409232D01*
X1734718Y6401917D01*
X1726082Y6393281D01*
X1718767Y6383528D01*
X1712925Y6372809D01*
X1708657Y6361379D01*
X1706067Y6349441D01*
X1705203Y6337300D01*
X1706067Y6325158D01*
X1708657Y6313220D01*
X1712925Y6301790D01*
X1718767Y6291072D01*
X1726082Y6281318D01*
X1734718Y6272682D01*
X1744472Y6265367D01*
X1755190Y6259525D01*
X1766620Y6255258D01*
X1778558Y6252667D01*
G37*
G36*
X1790700Y5743803D02*
G01*
X1802841Y5744667D01*
X1814779Y5747258D01*
X1826209Y5751525D01*
X1836928Y5757367D01*
X1846681Y5764682D01*
X1855317Y5773318D01*
X1862632Y5783072D01*
X1868474Y5793790D01*
X1872742Y5805220D01*
X1875332Y5817158D01*
X1876196Y5829300D01*
X1875332Y5841441D01*
X1872742Y5853379D01*
X1868474Y5864809D01*
X1862632Y5875528D01*
X1855317Y5885281D01*
X1846681Y5893917D01*
X1836928Y5901232D01*
X1826209Y5907074D01*
X1814779Y5911342D01*
X1802841Y5913932D01*
X1790700Y5914796D01*
X1778558Y5913932D01*
X1766620Y5911342D01*
X1755190Y5907074D01*
X1744472Y5901232D01*
X1734718Y5893917D01*
X1726082Y5885281D01*
X1718767Y5875528D01*
X1712925Y5864809D01*
X1708657Y5853379D01*
X1706067Y5841441D01*
X1705203Y5829300D01*
X1706067Y5817158D01*
X1708657Y5805220D01*
X1712925Y5793790D01*
X1718767Y5783072D01*
X1726082Y5773318D01*
X1734718Y5764682D01*
X1744472Y5757367D01*
X1755190Y5751525D01*
X1766620Y5747258D01*
X1778558Y5744667D01*
G37*
G36*
X1445158Y2892602D02*
G01*
X1457502Y2898800D01*
X1468577Y2906369D01*
X1478534Y2915412D01*
X1487220Y2925622D01*
X1494434Y2936951D01*
X1498803Y2946400D01*
X1445158Y2946400D01*
G37*
G36*
X259537Y5771337D02*
G01*
X326237Y5771337D01*
X320548Y5782716D01*
X311861Y5795924D01*
X301752Y5807964D01*
X290271Y5818784D01*
X277672Y5828182D01*
X264007Y5836056D01*
X259537Y5837986D01*
G37*
G36*
X3154781Y5979871D02*
G01*
X3165856Y5980734D01*
X3176727Y5983325D01*
X3186988Y5987592D01*
X3196488Y5993434D01*
X3204972Y6000648D01*
X3212185Y6009132D01*
X3218027Y6018631D01*
X3222294Y6028893D01*
X3224885Y6039713D01*
X3225749Y6050838D01*
X3224885Y6061964D01*
X3222294Y6072784D01*
X3218027Y6083046D01*
X3212134Y6092698D01*
X3210712Y6096660D01*
X3211017Y6100876D01*
X3213049Y6104585D01*
X3214065Y6105804D01*
X3219907Y6115304D01*
X3224174Y6125565D01*
X3226765Y6136386D01*
X3227628Y6147511D01*
X3226765Y6158585D01*
X3224174Y6169456D01*
X3219907Y6179718D01*
X3213658Y6189929D01*
X3212541Y6192469D01*
X3212185Y6196482D01*
X3212541Y6199225D01*
X3213658Y6201765D01*
X3219907Y6211925D01*
X3224174Y6222238D01*
X3226257Y6231026D01*
X3227984Y6234684D01*
X3231032Y6237427D01*
X3234842Y6238748D01*
X3238906Y6238443D01*
X3242513Y6236563D01*
X3247745Y6232347D01*
X3251606Y6229908D01*
X3254146Y6227622D01*
X3255772Y6224676D01*
X3256330Y6221323D01*
X3256330Y6191250D01*
X3325469Y6191250D01*
X3325469Y6213144D01*
X3326231Y6217005D01*
X3328466Y6220307D01*
X3331768Y6222492D01*
X3335629Y6223304D01*
X3408019Y6223304D01*
X3411880Y6222492D01*
X3415182Y6220307D01*
X3417417Y6217005D01*
X3418179Y6213144D01*
X3418179Y6191250D01*
X3487318Y6191250D01*
X3487318Y6213144D01*
X3488131Y6217005D01*
X3490315Y6220307D01*
X3493617Y6222492D01*
X3497478Y6223304D01*
X3520592Y6223304D01*
X3524808Y6222390D01*
X3528263Y6219799D01*
X3530346Y6216040D01*
X3530650Y6211722D01*
X3529177Y6207709D01*
X3524605Y6200546D01*
X3518458Y6187389D01*
X3513988Y6173622D01*
X3511245Y6159347D01*
X3510330Y6144869D01*
X3511245Y6130442D01*
X3513988Y6116167D01*
X3518458Y6102400D01*
X3524605Y6089243D01*
X3532378Y6077000D01*
X3541623Y6065824D01*
X3552240Y6055918D01*
X3563975Y6047384D01*
X3576675Y6040374D01*
X3590137Y6035040D01*
X3604209Y6031433D01*
X3618585Y6029655D01*
X3633063Y6029655D01*
X3647490Y6031433D01*
X3661511Y6035040D01*
X3675024Y6040374D01*
X3687724Y6047384D01*
X3699459Y6055918D01*
X3710025Y6065824D01*
X3719271Y6077000D01*
X3727043Y6089243D01*
X3733190Y6102400D01*
X3737711Y6116167D01*
X3740404Y6130442D01*
X3741318Y6144869D01*
X3740404Y6159347D01*
X3737711Y6173622D01*
X3733190Y6187389D01*
X3727043Y6200546D01*
X3722471Y6207709D01*
X3720998Y6211722D01*
X3721354Y6216040D01*
X3723386Y6219799D01*
X3726840Y6222390D01*
X3731056Y6223304D01*
X3742029Y6223508D01*
X3746398Y6224066D01*
X3750665Y6225032D01*
X3754882Y6226352D01*
X3758946Y6228029D01*
X3762857Y6230061D01*
X3766565Y6232448D01*
X3770071Y6235090D01*
X3773474Y6238240D01*
X3825189Y6289954D01*
X3828440Y6292138D01*
X3832301Y6292951D01*
X3836111Y6292240D01*
X3844137Y6289040D01*
X3858209Y6285433D01*
X3872585Y6283655D01*
X3887063Y6283655D01*
X3901490Y6285433D01*
X3915511Y6289040D01*
X3929024Y6294374D01*
X3941724Y6301384D01*
X3953459Y6309918D01*
X3964025Y6319824D01*
X3973271Y6331000D01*
X3981043Y6343243D01*
X3987190Y6356400D01*
X3991711Y6370167D01*
X3994404Y6384442D01*
X3995318Y6398869D01*
X3994404Y6413347D01*
X3991711Y6427622D01*
X3987190Y6441389D01*
X3981043Y6454546D01*
X3973271Y6466789D01*
X3964025Y6477965D01*
X3953459Y6487871D01*
X3941724Y6496405D01*
X3929024Y6503416D01*
X3915511Y6508750D01*
X3901490Y6512356D01*
X3887063Y6514134D01*
X3872585Y6514134D01*
X3858209Y6512356D01*
X3844137Y6508750D01*
X3830675Y6503416D01*
X3817975Y6496405D01*
X3806240Y6487871D01*
X3795623Y6477965D01*
X3786378Y6466789D01*
X3778605Y6454546D01*
X3772458Y6441389D01*
X3767988Y6427622D01*
X3765245Y6413347D01*
X3764330Y6398869D01*
X3765245Y6384442D01*
X3766108Y6380022D01*
X3766159Y6376720D01*
X3765194Y6373571D01*
X3763314Y6370929D01*
X3755186Y6362801D01*
X3751579Y6360464D01*
X3747363Y6359855D01*
X3743248Y6361023D01*
X3739997Y6363766D01*
X3738118Y6367627D01*
X3738016Y6371894D01*
X3740404Y6384442D01*
X3741318Y6398869D01*
X3740404Y6413347D01*
X3737711Y6427622D01*
X3733190Y6441389D01*
X3727043Y6454546D01*
X3719271Y6466789D01*
X3710025Y6477965D01*
X3699459Y6487871D01*
X3687724Y6496405D01*
X3675024Y6503416D01*
X3661511Y6508750D01*
X3647490Y6512356D01*
X3633063Y6514134D01*
X3618585Y6514134D01*
X3604209Y6512356D01*
X3590137Y6508750D01*
X3576675Y6503416D01*
X3563975Y6496405D01*
X3552240Y6487871D01*
X3541623Y6477965D01*
X3532378Y6466789D01*
X3524605Y6454546D01*
X3518458Y6441389D01*
X3513988Y6427622D01*
X3511245Y6413347D01*
X3510330Y6398869D01*
X3511245Y6384442D01*
X3513988Y6370167D01*
X3518458Y6356400D01*
X3524605Y6343243D01*
X3526739Y6339890D01*
X3528212Y6335877D01*
X3527907Y6331559D01*
X3525824Y6327800D01*
X3522370Y6325209D01*
X3518154Y6324295D01*
X3479495Y6324295D01*
X3475278Y6325209D01*
X3471824Y6327800D01*
X3469741Y6331559D01*
X3469436Y6335877D01*
X3470910Y6339890D01*
X3473043Y6343243D01*
X3479190Y6356400D01*
X3483711Y6370167D01*
X3486404Y6384442D01*
X3487318Y6398869D01*
X3486404Y6413347D01*
X3483711Y6427622D01*
X3479190Y6441389D01*
X3473043Y6454546D01*
X3465271Y6466789D01*
X3456025Y6477965D01*
X3445459Y6487871D01*
X3433724Y6496405D01*
X3419957Y6503873D01*
X3417773Y6505448D01*
X3416096Y6507530D01*
X3413150Y6512407D01*
X3410559Y6515811D01*
X3407410Y6519214D01*
X2882493Y7044131D01*
X2880258Y7047433D01*
X2879496Y7051344D01*
X2880258Y7055205D01*
X2882493Y7058507D01*
X2885795Y7060692D01*
X2889656Y7061504D01*
X2972054Y7061504D01*
X2975965Y7060692D01*
X2979267Y7058507D01*
X3005124Y7032650D01*
X3007309Y7029348D01*
X3008071Y7025487D01*
X3007309Y7021575D01*
X3003346Y7012025D01*
X3000756Y7001205D01*
X2999892Y6990080D01*
X3000756Y6978954D01*
X3003346Y6968134D01*
X3007614Y6957872D01*
X3013456Y6948373D01*
X3020669Y6939889D01*
X3029153Y6932675D01*
X3038652Y6926834D01*
X3048914Y6922566D01*
X3059734Y6919975D01*
X3070860Y6919112D01*
X3081985Y6919975D01*
X3092805Y6922566D01*
X3103067Y6926834D01*
X3112566Y6932675D01*
X3121050Y6939889D01*
X3128264Y6948373D01*
X3134106Y6957872D01*
X3138373Y6968134D01*
X3140964Y6978954D01*
X3141827Y6990080D01*
X3140964Y7001205D01*
X3138373Y7012025D01*
X3134106Y7022287D01*
X3128264Y7031786D01*
X3123488Y7037374D01*
X3121964Y7039864D01*
X3121152Y7042708D01*
X3120593Y7047128D01*
X3119628Y7051395D01*
X3118307Y7055612D01*
X3116630Y7059675D01*
X3114598Y7063587D01*
X3112211Y7067296D01*
X3109518Y7070801D01*
X3106420Y7074204D01*
X3033064Y7147559D01*
X3029661Y7150709D01*
X3026156Y7153351D01*
X3022447Y7155738D01*
X3018536Y7157770D01*
X3014472Y7159447D01*
X3010255Y7160768D01*
X3005988Y7161733D01*
X3001619Y7162292D01*
X2996996Y7162495D01*
X2438146Y7162495D01*
X2434234Y7163257D01*
X2430932Y7165492D01*
X2338374Y7258050D01*
X2334971Y7261199D01*
X2331466Y7263841D01*
X2327757Y7266228D01*
X2323846Y7268260D01*
X2319782Y7269937D01*
X2315565Y7271258D01*
X2311298Y7272223D01*
X2306929Y7272781D01*
X2302306Y7272985D01*
X2149043Y7272985D01*
X2145538Y7273645D01*
X2142439Y7275423D01*
X2137206Y7279894D01*
X2127707Y7285736D01*
X2117445Y7290003D01*
X2106625Y7292594D01*
X2095500Y7293457D01*
X2084374Y7292594D01*
X2073554Y7290003D01*
X2063292Y7285736D01*
X2053793Y7279894D01*
X2045309Y7272680D01*
X2038096Y7264196D01*
X2032254Y7254697D01*
X2027986Y7244435D01*
X2025396Y7233615D01*
X2024532Y7222490D01*
X2025396Y7211364D01*
X2027986Y7200544D01*
X2032254Y7190282D01*
X2038096Y7180783D01*
X2045309Y7172299D01*
X2053793Y7165086D01*
X2063292Y7159244D01*
X2073554Y7154976D01*
X2084374Y7152386D01*
X2095500Y7151522D01*
X2106625Y7152386D01*
X2117445Y7154976D01*
X2127707Y7159244D01*
X2137206Y7165086D01*
X2142439Y7169556D01*
X2145538Y7171334D01*
X2149043Y7171994D01*
X2277364Y7171994D01*
X2281275Y7171181D01*
X2284577Y7168997D01*
X2337206Y7116368D01*
X2339441Y7113066D01*
X2340203Y7109155D01*
X2339441Y7105294D01*
X2337206Y7101992D01*
X2333904Y7099757D01*
X2330043Y7098995D01*
X2222703Y7098995D01*
X2218080Y7098792D01*
X2213711Y7098233D01*
X2209444Y7097268D01*
X2205228Y7095947D01*
X2201164Y7094270D01*
X2197252Y7092238D01*
X2193544Y7089851D01*
X2190038Y7087209D01*
X2186635Y7084059D01*
X1957933Y6855409D01*
X1955038Y6853326D01*
X1951583Y6852462D01*
X1944674Y6851903D01*
X1933854Y6849313D01*
X1923592Y6845046D01*
X1914093Y6839203D01*
X1905609Y6831990D01*
X1898396Y6823506D01*
X1892554Y6814007D01*
X1888286Y6803745D01*
X1885696Y6792925D01*
X1884832Y6781800D01*
X1885696Y6770674D01*
X1888286Y6759854D01*
X1892554Y6749592D01*
X1898396Y6740093D01*
X1905609Y6731609D01*
X1914093Y6724396D01*
X1923592Y6718553D01*
X1925624Y6717741D01*
X1929231Y6715150D01*
X1931416Y6711340D01*
X1931771Y6706920D01*
X1930196Y6702755D01*
X1926793Y6699503D01*
X1918309Y6692290D01*
X1911096Y6683806D01*
X1905254Y6674307D01*
X1900986Y6664045D01*
X1898396Y6653225D01*
X1897532Y6642100D01*
X1898396Y6630974D01*
X1900986Y6620154D01*
X1905254Y6609892D01*
X1911096Y6600393D01*
X1918309Y6591909D01*
X1926793Y6584696D01*
X1936292Y6578853D01*
X1946554Y6574586D01*
X1957374Y6571996D01*
X1968500Y6571132D01*
X1979625Y6571996D01*
X1990445Y6574586D01*
X2000707Y6578853D01*
X2010206Y6584696D01*
X2018690Y6591909D01*
X2025904Y6600393D01*
X2031746Y6609892D01*
X2036013Y6620154D01*
X2038604Y6630974D01*
X2039467Y6642100D01*
X2038604Y6653225D01*
X2036013Y6664045D01*
X2034590Y6667449D01*
X2033828Y6671309D01*
X2034590Y6675221D01*
X2036775Y6678523D01*
X2040077Y6680708D01*
X2043988Y6681470D01*
X2047849Y6680708D01*
X2051151Y6678523D01*
X2080107Y6649567D01*
X2082342Y6646265D01*
X2083104Y6642353D01*
X2083104Y6375146D01*
X2082342Y6371234D01*
X2080107Y6367932D01*
X2051202Y6339027D01*
X2047900Y6336842D01*
X2044039Y6336080D01*
X2038299Y6336080D01*
X2034133Y6336944D01*
X2030679Y6339535D01*
X2028596Y6343243D01*
X2028240Y6347510D01*
X2029663Y6351524D01*
X2031746Y6354927D01*
X2036013Y6365240D01*
X2038604Y6376060D01*
X2039467Y6387134D01*
X2038604Y6398260D01*
X2036013Y6409080D01*
X2031746Y6419392D01*
X2025904Y6428892D01*
X2018690Y6437325D01*
X2010206Y6444589D01*
X2000707Y6450380D01*
X1990445Y6454648D01*
X1979625Y6457238D01*
X1968500Y6458153D01*
X1957374Y6457238D01*
X1946554Y6454648D01*
X1936292Y6450380D01*
X1926793Y6444589D01*
X1918309Y6437325D01*
X1911096Y6428892D01*
X1905254Y6419392D01*
X1900986Y6409080D01*
X1898396Y6398260D01*
X1897532Y6387134D01*
X1898396Y6376060D01*
X1900986Y6365240D01*
X1905254Y6354927D01*
X1911096Y6345428D01*
X1913178Y6342938D01*
X1915007Y6339890D01*
X1915617Y6336334D01*
X1915007Y6332829D01*
X1913178Y6329781D01*
X1911096Y6327292D01*
X1905254Y6317792D01*
X1900986Y6307480D01*
X1898396Y6296660D01*
X1897532Y6285534D01*
X1898396Y6274460D01*
X1900986Y6263640D01*
X1905254Y6253327D01*
X1911096Y6243828D01*
X1913178Y6241338D01*
X1915007Y6238290D01*
X1915617Y6234734D01*
X1915007Y6231229D01*
X1913178Y6228181D01*
X1911096Y6225692D01*
X1905254Y6216192D01*
X1900986Y6205880D01*
X1898396Y6195060D01*
X1897532Y6183934D01*
X1898396Y6172860D01*
X1900986Y6162040D01*
X1905254Y6151727D01*
X1911096Y6142228D01*
X1913178Y6139738D01*
X1915007Y6136690D01*
X1915617Y6133134D01*
X1915007Y6129629D01*
X1913178Y6126581D01*
X1911096Y6124092D01*
X1905254Y6114592D01*
X1900986Y6104280D01*
X1898396Y6093460D01*
X1897532Y6082334D01*
X1898396Y6071260D01*
X1900986Y6060440D01*
X1905254Y6050127D01*
X1911096Y6040628D01*
X1918309Y6032195D01*
X1926793Y6024930D01*
X1936292Y6019139D01*
X1946554Y6014872D01*
X1957374Y6012281D01*
X1968500Y6011367D01*
X1979625Y6012281D01*
X1990445Y6014872D01*
X2000707Y6019139D01*
X2010206Y6024930D01*
X2018690Y6032195D01*
X2025904Y6040628D01*
X2031746Y6050127D01*
X2036013Y6060440D01*
X2038604Y6071260D01*
X2039467Y6082334D01*
X2038604Y6093460D01*
X2036013Y6104280D01*
X2031746Y6114592D01*
X2025904Y6124092D01*
X2023821Y6126581D01*
X2021992Y6129629D01*
X2021382Y6133134D01*
X2021992Y6136690D01*
X2023821Y6139738D01*
X2025904Y6142228D01*
X2031746Y6151727D01*
X2036013Y6162040D01*
X2038604Y6172860D01*
X2039467Y6183934D01*
X2038604Y6195060D01*
X2036013Y6205880D01*
X2031746Y6216192D01*
X2029663Y6219596D01*
X2028240Y6223609D01*
X2028596Y6227876D01*
X2030679Y6231585D01*
X2034133Y6234176D01*
X2038299Y6235039D01*
X2068931Y6235039D01*
X2073554Y6235242D01*
X2077923Y6235852D01*
X2082241Y6236766D01*
X2086406Y6238087D01*
X2090521Y6239814D01*
X2094433Y6241846D01*
X2098141Y6244183D01*
X2101596Y6246876D01*
X2105050Y6250025D01*
X2169160Y6314135D01*
X2172309Y6317538D01*
X2174951Y6321044D01*
X2177338Y6324752D01*
X2179370Y6328664D01*
X2181047Y6332728D01*
X2182368Y6336944D01*
X2183333Y6341211D01*
X2183892Y6345580D01*
X2184095Y6350203D01*
X2184095Y6667296D01*
X2183892Y6671919D01*
X2183333Y6676288D01*
X2182368Y6680555D01*
X2181047Y6684772D01*
X2179370Y6688836D01*
X2177338Y6692747D01*
X2174951Y6696456D01*
X2172309Y6699961D01*
X2169160Y6703364D01*
X2068017Y6804507D01*
X2066696Y6805625D01*
X2064105Y6808927D01*
X2063038Y6812991D01*
X2063750Y6817106D01*
X2066036Y6820611D01*
X2240432Y6995007D01*
X2243734Y6997192D01*
X2247646Y6998004D01*
X2346198Y6998004D01*
X2349804Y6997344D01*
X2352954Y6995464D01*
X2355189Y6992569D01*
X2356307Y6989114D01*
X2356104Y6985457D01*
X2355596Y6983425D01*
X2354732Y6972300D01*
X2355596Y6961174D01*
X2358186Y6950354D01*
X2362454Y6940092D01*
X2368296Y6930593D01*
X2375509Y6922109D01*
X2383993Y6914896D01*
X2393492Y6909053D01*
X2403754Y6904786D01*
X2414574Y6902196D01*
X2425700Y6901332D01*
X2436825Y6902196D01*
X2447645Y6904786D01*
X2457907Y6909053D01*
X2467406Y6914896D01*
X2475890Y6922109D01*
X2483104Y6930593D01*
X2488946Y6940092D01*
X2493213Y6950354D01*
X2495804Y6961174D01*
X2496667Y6972300D01*
X2495804Y6983425D01*
X2495296Y6985457D01*
X2495092Y6989114D01*
X2496210Y6992569D01*
X2498445Y6995464D01*
X2501595Y6997344D01*
X2505202Y6998004D01*
X2781554Y6998004D01*
X2785465Y6997192D01*
X2788767Y6995007D01*
X3118307Y6665468D01*
X3120390Y6662470D01*
X3121253Y6658914D01*
X3120796Y6655308D01*
X3119120Y6652056D01*
X3106470Y6641490D01*
X3099257Y6633006D01*
X3093415Y6623507D01*
X3089148Y6613245D01*
X3086557Y6602425D01*
X3085693Y6591300D01*
X3086557Y6580174D01*
X3089148Y6569354D01*
X3093415Y6559092D01*
X3099257Y6549593D01*
X3106470Y6541109D01*
X3114954Y6533896D01*
X3124454Y6528054D01*
X3134766Y6523786D01*
X3138068Y6521602D01*
X3140252Y6518300D01*
X3141014Y6514388D01*
X3140252Y6510528D01*
X3138068Y6507226D01*
X3134766Y6504990D01*
X3124454Y6500723D01*
X3114954Y6494932D01*
X3106470Y6487668D01*
X3099257Y6479184D01*
X3093415Y6469735D01*
X3089148Y6459423D01*
X3086557Y6448602D01*
X3085693Y6437477D01*
X3086557Y6426403D01*
X3089148Y6415532D01*
X3093415Y6405270D01*
X3099663Y6395110D01*
X3100781Y6392570D01*
X3101136Y6388557D01*
X3100781Y6385814D01*
X3099663Y6383223D01*
X3093415Y6373063D01*
X3089148Y6362750D01*
X3086557Y6351930D01*
X3085693Y6340856D01*
X3086557Y6329730D01*
X3089148Y6318910D01*
X3093415Y6308598D01*
X3099663Y6298438D01*
X3100781Y6295898D01*
X3101136Y6291884D01*
X3100781Y6289141D01*
X3099663Y6286550D01*
X3093415Y6276390D01*
X3089148Y6266078D01*
X3086557Y6255258D01*
X3085693Y6244183D01*
X3086557Y6233058D01*
X3089148Y6222238D01*
X3093415Y6211925D01*
X3099663Y6201765D01*
X3100781Y6199174D01*
X3101136Y6195161D01*
X3100781Y6192418D01*
X3099663Y6189929D01*
X3093415Y6179718D01*
X3089148Y6169456D01*
X3086557Y6158585D01*
X3085693Y6147511D01*
X3086557Y6136386D01*
X3089148Y6125565D01*
X3093415Y6115304D01*
X3099308Y6105652D01*
X3100730Y6101689D01*
X3100374Y6097473D01*
X3098393Y6093764D01*
X3097377Y6092545D01*
X3091535Y6083046D01*
X3087268Y6072784D01*
X3084677Y6061964D01*
X3083814Y6050838D01*
X3084677Y6039713D01*
X3087268Y6028893D01*
X3091535Y6018631D01*
X3097377Y6009132D01*
X3104591Y6000648D01*
X3113074Y5993434D01*
X3122574Y5987592D01*
X3132836Y5983325D01*
X3143656Y5980734D01*
G37*
G36*
X1822043Y6004001D02*
G01*
X1826209Y6005525D01*
X1836928Y6011367D01*
X1846681Y6018682D01*
X1855317Y6027318D01*
X1862632Y6037072D01*
X1868474Y6047790D01*
X1869998Y6051956D01*
X1822043Y6051956D01*
G37*
G36*
X1759356Y6004001D02*
G01*
X1759356Y6051956D01*
X1711401Y6051956D01*
X1712925Y6047790D01*
X1718767Y6037072D01*
X1726082Y6027318D01*
X1734718Y6018682D01*
X1744472Y6011367D01*
X1755190Y6005525D01*
G37*
G36*
X1711401Y6114643D02*
G01*
X1759356Y6114643D01*
X1759356Y6162598D01*
X1755190Y6161074D01*
X1744472Y6155232D01*
X1734718Y6147917D01*
X1726082Y6139281D01*
X1718767Y6129528D01*
X1712925Y6118809D01*
G37*
G36*
X3292348Y6029401D02*
G01*
X3325469Y6029401D01*
X3325469Y6098540D01*
X3256330Y6098540D01*
X3256330Y6065418D01*
X3257042Y6058001D01*
X3259074Y6051346D01*
X3262325Y6045200D01*
X3266744Y6039815D01*
X3272129Y6035395D01*
X3278276Y6032144D01*
X3284931Y6030112D01*
G37*
G36*
X3418179Y6029401D02*
G01*
X3451301Y6029401D01*
X3458718Y6030112D01*
X3465372Y6032144D01*
X3471519Y6035395D01*
X3476904Y6039815D01*
X3481324Y6045200D01*
X3484575Y6051346D01*
X3486607Y6058001D01*
X3487318Y6065418D01*
X3487318Y6098540D01*
X3418179Y6098540D01*
G37*
G36*
X3872585Y6029655D02*
G01*
X3887063Y6029655D01*
X3901490Y6031433D01*
X3915511Y6035040D01*
X3929024Y6040374D01*
X3941724Y6047384D01*
X3953459Y6055918D01*
X3964025Y6065824D01*
X3973271Y6077000D01*
X3981043Y6089243D01*
X3987190Y6102400D01*
X3991711Y6116167D01*
X3994404Y6130442D01*
X3995318Y6144869D01*
X3994404Y6159347D01*
X3991711Y6173622D01*
X3987190Y6187389D01*
X3981043Y6200546D01*
X3973271Y6212789D01*
X3964025Y6223965D01*
X3953459Y6233871D01*
X3941724Y6242405D01*
X3929024Y6249416D01*
X3915511Y6254750D01*
X3901490Y6258356D01*
X3887063Y6260134D01*
X3872585Y6260134D01*
X3858209Y6258356D01*
X3844137Y6254750D01*
X3830675Y6249416D01*
X3817975Y6242405D01*
X3806240Y6233871D01*
X3795623Y6223965D01*
X3786378Y6212789D01*
X3778605Y6200546D01*
X3772458Y6187389D01*
X3767988Y6173622D01*
X3765245Y6159347D01*
X3764330Y6144869D01*
X3765245Y6130442D01*
X3767988Y6116167D01*
X3772458Y6102400D01*
X3778605Y6089243D01*
X3786378Y6077000D01*
X3795623Y6065824D01*
X3806240Y6055918D01*
X3817975Y6047384D01*
X3830675Y6040374D01*
X3844137Y6035040D01*
X3858209Y6031433D01*
G37*
G36*
X1822043Y6114643D02*
G01*
X1869998Y6114643D01*
X1868474Y6118809D01*
X1862632Y6129528D01*
X1855317Y6139281D01*
X1846681Y6147917D01*
X1836928Y6155232D01*
X1826209Y6161074D01*
X1822043Y6162598D01*
G37*

%LPD*%
D13*
X5908537Y6412306D02*
G01*
X5908537Y6994664D01*
X5905502Y6997700D01*
D10*
X3879850Y6399021D02*
G01*
X3862831Y6399021D01*
X3737609Y6273800D01*
X3276600Y6273800D01*
X3242818Y6307581D01*
X3242818Y6510781D01*
X3162300Y6591300D01*
X3154934Y6591300D01*
X3371850Y6399021D02*
G01*
X3371850Y6483350D01*
X2806700Y7048500D01*
X2222500Y7048500D01*
X1955800Y6781800D01*
X1968500Y6285560D02*
G01*
X2069160Y6285560D01*
X2133600Y6350000D01*
X2133600Y6667500D01*
X2032000Y6769100D01*
X1968500Y6769100D01*
X1955800Y6781800D01*
X2268372Y5716244D02*
G01*
X2268372Y5618327D01*
X2374900Y5511800D01*
X2374900Y5118100D01*
X2413000Y5080000D01*
X2717800Y5080000D01*
X2781300Y5016500D01*
X2781300Y4622800D01*
X2832100Y4572000D01*
X3086100Y4572000D01*
X-228600Y8318500D02*
G01*
X-310387Y8318500D01*
X-409702Y8219186D01*
X-409702Y7869681D01*
X-228600Y8318500D02*
G01*
X-138684Y8318500D01*
X-101092Y8356092D01*
X828802Y8356092D01*
X1882394Y9409684D01*
X2432558Y9409684D01*
X2443225Y9420352D01*
X-228600Y8026400D02*
G01*
X889000Y8026400D01*
X1781987Y8919387D01*
X2336800Y8919387D01*
X2311400Y7810500D02*
G01*
X1917700Y7810500D01*
X1460500Y8267700D01*
X1460500Y8369300D01*
X2755900Y8547100D02*
G01*
X2616200Y8547100D01*
X2463800Y8394700D01*
X2463800Y7835900D01*
X2336800Y7708900D01*
X2070100Y7708900D01*
X5956300Y4483100D02*
G01*
X5136261Y4483100D01*
X5049164Y4396003D01*
X2442207Y4575807D02*
G01*
X2421892Y4575807D01*
X2286000Y4711700D01*
X2286000Y5461000D01*
X2070100Y5676900D01*
X2070100Y5890260D01*
X2108200Y5928360D01*
D12*
X2336800Y4114800D02*
G01*
X1641094Y4810505D01*
X1536700Y4810505D01*
X2679700Y3314674D02*
G01*
X2463825Y3314674D01*
X2336800Y3441700D01*
X2336800Y4114800D01*
D10*
X3055442Y4408170D02*
G01*
X3055442Y3843200D01*
X3164842Y3733800D01*
X5715000Y3733800D01*
X5740400Y3759200D01*
X3737432Y4421403D02*
G01*
X3737432Y3984167D01*
X3873500Y3848100D01*
X5194300Y3848100D01*
X5359400Y4013200D01*
X5740400Y4013200D01*
D13*
X4708641Y6412306D02*
G01*
X4708641Y6988060D01*
X4699002Y6997700D01*
X5308589Y4992293D02*
G01*
X5308589Y6984989D01*
X5321300Y6997700D01*
X4721352Y9215714D02*
G01*
X4721352Y9861560D01*
X4724400Y9864608D01*
X5321300Y7786293D02*
G01*
X5321300Y9842500D01*
X5334000Y9855200D01*
X5921247Y9206306D02*
G01*
X5921247Y9845547D01*
X5930900Y9855200D01*
D10*
X2692400Y7493000D02*
G01*
X2794000Y7594600D01*
X2882900Y7594600D01*
X2959100Y7670800D01*
X2959100Y9067800D01*
X3036315Y9145015D01*
X3200400Y9145015D01*
X2349500Y5645861D02*
G01*
X2355138Y5645861D01*
X2438400Y5562600D01*
X2438400Y5181600D01*
X2476500Y5143500D01*
X2755900Y5143500D01*
X2844800Y5054600D01*
X2844800Y4787900D01*
X2882900Y4749800D01*
X3588456Y4749800D01*
X3778956Y4559300D01*
D12*
X1406321Y3185261D02*
G01*
X1054100Y3537483D01*
X1054100Y3557526D01*
D10*
X3937000Y7327900D02*
G01*
X3937000Y7340600D01*
X4076700Y7480300D01*
X4076700Y8597900D01*
X2095500Y7222489D02*
G01*
X2302509Y7222489D01*
X2331689Y7193310D01*
X3070857Y6990079D02*
G01*
X3070857Y7038342D01*
X2997200Y7112000D01*
X2413000Y7112000D01*
X2324100Y7200900D01*
X4381500Y4394200D02*
G01*
X4381500Y4051300D01*
X4495800Y3937000D01*
X5016500Y3937000D01*
X5346700Y4267200D01*
X5740400Y4267200D01*
G36*
X1257300Y4102100D02*
G01*
X2095500Y4102100D01*
X2095500Y3505200D01*
X1257300Y3505200D01*
G37*
D33*
G01*
X-228600Y8064500D03*
G01*
X-228600Y8318500D03*
D12*
G01*
X1790700Y5829300D03*
G01*
X1790700Y6083300D03*
G01*
X1790700Y6337300D03*
G01*
X1790700Y6591300D03*
D34*
G01*
X3200400Y9144990D03*
G01*
X3200400Y9398990D03*
G01*
X3200400Y8888984D03*
D33*
G01*
X3848100Y9398000D03*
G01*
X3594100Y9398000D03*
G01*
X3873500Y8227060D03*
G01*
X3619500Y8227060D03*
D34*
G01*
X3200400Y8078190D03*
G01*
X3200400Y8332190D03*
G01*
X3200400Y7822184D03*
D35*
G01*
X2336800Y8919387D03*
G01*
X2336800Y9419386D03*
D36*
G01*
X1406311Y3185253D03*
G01*
X1406311Y2985254D03*
D35*
G01*
X1536700Y4460494D03*
G01*
X1536700Y4810505D03*
G36*
X227500Y3493599D02*
G01*
X407499Y3493599D01*
X407499Y3313600D01*
X227500Y3313600D01*
G37*
D38*
G01*
X190500Y9779000D03*
G01*
X203200Y5715000D03*
G01*
X1473200Y5715000D03*
G01*
X1460500Y9779000D03*
D35*
G01*
X770712Y5130800D03*
G01*
X270713Y5130800D03*
D39*
G01*
X4737100Y3314674D03*
D37*
G01*
X4736998Y3568700D03*
D39*
G01*
X3365500Y3314700D03*
D37*
G01*
X3365398Y3568725D03*
D39*
G01*
X4051300Y3314700D03*
D37*
G01*
X4051198Y3568725D03*
D39*
G01*
X2679700Y3314674D03*
D37*
G01*
X2679598Y3568725D03*
D40*
G01*
X5921247Y9206306D03*
G01*
X5321300Y7786293D03*
G01*
X4721301Y7986293D03*
G01*
X5921298Y7986293D03*
G01*
X4721352Y9206306D03*
G01*
X5908547Y6412306D03*
G01*
X5308600Y4992293D03*
G01*
X4708601Y5192293D03*
G01*
X5908598Y5192293D03*
G01*
X4708652Y6412306D03*
D33*
G01*
X5740400Y3505200D03*
D37*
G01*
X5740400Y4267200D03*
D33*
G01*
X5740400Y4013200D03*
G01*
X5740400Y3759200D03*
D41*
G01*
X3371824Y6144895D03*
D35*
G01*
X3371824Y6398895D03*
G01*
X3625824Y6144895D03*
G01*
X3625824Y6398895D03*
G01*
X3879824Y6144895D03*
G01*
X3879824Y6398895D03*
D42*
G01*
X4000500Y4978400D03*
G01*
X3517900Y4978400D03*
D35*
G01*
X2571546Y4885265D03*
G01*
X2071573Y4885265D03*
D43*
G01*
X1028700Y3568700D03*
G01*
X1028700Y3797300D03*
G01*
X1028700Y4025900D03*
D44*
G01*
X4724400Y9855200D03*
G01*
X5334000Y9855200D03*
G01*
X5930900Y9855200D03*
G01*
X5905500Y6997700D03*
G01*
X5321300Y6997700D03*
G01*
X4699000Y6997700D03*
D17*
G01*
X2063325Y3004820D03*
G01*
X1943100Y4000500D03*
G01*
X1943100Y3860800D03*
G01*
X1943100Y3721100D03*
G01*
X1943100Y3581400D03*
G01*
X1384300Y3792220D03*
G01*
X1384300Y3624579D03*
G01*
X1562100Y3624579D03*
G01*
X1739900Y3624579D03*
G01*
X1739900Y3792220D03*
G01*
X1739900Y3959860D03*
G01*
X1562100Y3959860D03*
G01*
X1384300Y3959860D03*
G01*
X1562100Y3792220D03*
G01*
X279400Y4508969D03*
G01*
X751839Y4511227D03*
G01*
X3055437Y4408170D03*
G01*
X3737429Y4421416D03*
G01*
X4381500Y4394200D03*
G01*
X4699000Y4094479D03*
G01*
X4049486Y4089400D03*
G01*
X3383643Y4100286D03*
G01*
X2720152Y4095983D03*
G01*
X3759200Y4787900D03*
G01*
X3086100Y5118100D03*
G01*
X2587713Y5715111D03*
G01*
X2425700Y5714530D03*
G01*
X2268372Y5716249D03*
G01*
X2040653Y5265420D03*
G01*
X2349500Y5645856D03*
G01*
X2346959Y6101079D03*
G01*
X2451734Y6101079D03*
G01*
X2556509Y6101079D03*
G01*
X2661284Y6101079D03*
G01*
X2766059Y6101079D03*
G01*
X2766059Y6215379D03*
G01*
X2661284Y6215379D03*
G01*
X2556509Y6215379D03*
G01*
X2451734Y6215379D03*
G01*
X2346959Y6215379D03*
G01*
X2346959Y6323329D03*
G01*
X2451734Y6323329D03*
G01*
X2556509Y6323329D03*
G01*
X2661284Y6323329D03*
G01*
X2766059Y6323329D03*
G01*
X2766059Y6434454D03*
G01*
X2766059Y6545579D03*
G01*
X2661284Y6545579D03*
G01*
X2661284Y6434454D03*
G01*
X2556509Y6434454D03*
G01*
X2556509Y6545579D03*
G01*
X2451734Y6545579D03*
G01*
X2451734Y6434454D03*
G01*
X2346959Y6434454D03*
G01*
X2346959Y6545579D03*
G01*
X2525486Y7476672D03*
G01*
X3075940Y7479029D03*
G01*
X3070859Y6990079D03*
G01*
X-409691Y7869768D03*
G01*
X2311400Y7810500D03*
G01*
X1460500Y8369300D03*
G01*
X2095500Y7222489D03*
G01*
X2108200Y5928360D03*
G01*
X2442209Y4575810D03*
G01*
X3086100Y4572000D03*
G01*
X3778956Y4559300D03*
G01*
X3156656Y6591300D03*
G01*
X1955800Y6781800D03*
G01*
X2070100Y7708900D03*
G01*
X2755900Y8547100D03*
G01*
X2613659Y7719060D03*
G01*
X3641404Y7319904D03*
G01*
X3476170Y8594272D03*
G01*
X4076700Y8597900D03*
G01*
X3937000Y7327900D03*
G01*
X2692400Y7493000D03*
G01*
X2514600Y6921500D03*
G01*
X3325047Y2984500D03*
G01*
X5956300Y4483100D03*
G01*
X5049156Y4396013D03*
G01*
X1968500Y6285560D03*
G01*
X2634343Y5265059D03*
G01*
X2425700Y6972300D03*
G01*
X1968500Y6183960D03*
G01*
X1968500Y6082360D03*
G01*
X3156656Y6437490D03*
G01*
X3156658Y6340833D03*
G01*
X3156658Y6244165D03*
G01*
X3156653Y6147503D03*
G01*
X3154773Y6050841D03*
G01*
X2984500Y4902200D03*
G01*
X1930400Y4292600D03*
G01*
X2092959Y4598670D03*
G01*
X2323073Y3232150D03*
G01*
X2487747Y3830680D03*
G01*
X3048000Y3683000D03*
G01*
X3225800Y3860800D03*
G01*
X5123179Y3615689D03*
G01*
X5090159Y4185920D03*
G01*
X3718425Y3615489D03*
G01*
X3953931Y3970865D03*
G01*
X1968500Y6642100D03*
G01*
X1968500Y6387160D03*
D33*
X317500Y3911600D02*
G01*
X317500Y3911600D01*
X317500Y3657600D02*
G01*
X317500Y3657600D01*
M02*
