M48
METRIC,LZ,000.000
;FILE_FORMAT=3:3
;TYPE=PLATED
;Layer: Drill PTH
;EasyEDA v6.4.20.6, 2021-07-30T13:21:48--3:00
;b5d51b18a43e43a9a62da66a6b900804,9d841d54c62b4e4b873e3168cd68637e,10
;Gerber Generator version 0.2
;Holesize 1 = 0.310 mm
T01C0.310
;Holesize 2 = 0.501 mm
T02C0.501
;Holesize 3 = 0.600 mm
T03C0.600
;Holesize 4 = 0.762 mm
T04C0.762
;Holesize 5 = 0.800 mm
T05C0.800
;Holesize 6 = 0.813 mm
T06C0.813
;Holesize 7 = 0.910 mm
T07C0.910
;Holesize 8 = 1.000 mm
T08C1.000
;Holesize 9 = 1.101 mm
T09C1.101
;Holesize 10 = 1.200 mm
T10C1.200
;Holesize 11 = 1.524 mm
T11C1.524
;Holesize 12 = 2.000 mm
T12C2.000
%
G05
G90
T01
X020633Y030048
X019431Y040005
X019431Y038608
X019431Y037211
X019431Y035814
X013843Y037922
X013843Y036246
X015621Y036246
X017399Y036246
X017399Y037922
X017399Y039599
X015621Y039599
X013843Y039599
X015621Y037922
X002794Y045090
X007518Y045112
X030554Y044082
X037374Y044214
X043815Y043942
X046990Y040945
X040495Y040894
X033836Y041003
X027202Y040960
X037592Y047879
X030861Y051181
X025877Y057151
X024257Y057145
X022684Y057162
X020407Y052654
X023495Y056459
X023470Y061011
X024517Y061011
X025565Y061011
X026613Y061011
X027661Y061011
X027661Y062154
X026613Y062154
X025565Y062154
X024517Y062154
X023470Y062154
X023470Y063233
X024517Y063233
X025565Y063233
X026613Y063233
X027661Y063233
X027661Y064345
X027661Y065456
X026613Y065456
X026613Y064345
X025565Y064345
X025565Y065456
X024517Y065456
X024517Y064345
X023470Y064345
X023470Y065456
X025255Y074767
X030759Y074790
X030709Y069901
X-004097Y078698
X023114Y078105
X014605Y083693
X020955Y072225
X021082Y059284
X024422Y045758
X030861Y045720
X037790Y045593
X031567Y065913
X019558Y067818
X020701Y077089
X027559Y085471
X026137Y077191
X036414Y073199
X034762Y085943
X040767Y085979
X039370Y073279
X026924Y074930
X025146Y069215
X033250Y029845
X059563Y044831
X050492Y043960
X019685Y062856
X026343Y052651
X024257Y069723
X019685Y061840
X019685Y060824
X031567Y064375
X031567Y063408
X031567Y062442
X031567Y061475
X031548Y060508
X029845Y049022
X019304Y042926
X020930Y045987
X023231Y032322
X024877Y038307
X030480Y036830
X032258Y038608
X051232Y036157
X050902Y041859
X037184Y036155
X039539Y039709
X019685Y066421
X019685Y063872
T02
X010287Y035687
X010287Y037973
X010287Y040259
T03
X017907Y058293
X017907Y060833
X017907Y063373
X017907Y065913
T04
X032004Y091450
X032004Y093990
X032004Y088890
X032004Y080782
X032004Y083322
X032004Y078222
T05
X014063Y031853
X014063Y029853
T06
X047371Y033147
X047370Y035687
X033655Y033147
X033654Y035687
X040513Y033147
X040512Y035687
X026797Y033147
X026796Y035687
X040005Y049784
X035179Y049784
T07
X033718Y061449
X033718Y063989
X036258Y061449
X036258Y063989
X038798Y061449
X038798Y063989
T08
X023368Y089194
X023368Y094194
X015367Y044605
X015367Y048105
X003175Y039116
X003175Y036576
X003175Y034036
X007707Y051308
X002707Y051308
X025715Y048853
X020716Y048853
T09
X-002286Y080645
X-002286Y083185
X038481Y093980
X035941Y093980
X038735Y082271
X036195Y082271
T10
X001905Y097790
X002032Y057150
X014732Y057150
X014605Y097790
X057404Y035052
X057404Y042672
X057404Y040132
X057404Y037592
T11
X059212Y092063
X053213Y077863
X047213Y079863
X059213Y079863
X047214Y092063
X059085Y064123
X053086Y049923
X047086Y051923
X059086Y051923
X047086Y064123
T12
X047244Y098552
X053340Y098552
X059309Y098552
X059055Y069977
X053213Y069977
X046990Y069977
M30
