G04 Layer: Inner2*
G04 EasyEDA v6.4.20.6, 2021-07-30T13:21:48--3:00*
G04 b5d51b18a43e43a9a62da66a6b900804,9d841d54c62b4e4b873e3168cd68637e,10*
G04 Gerber Generator version 0.2*
G04 Scale: 100 percent, Rotated: No, Reflected: No *
G04 Dimensions in millimeters *
G04 leading zeros omitted , absolute positions ,4 integer and 5 decimal *
%FSLAX45Y45*%
%MOMM*%

%ADD12C,1.0000*%
%ADD17C,0.7100*%
%ADD33C,1.8000*%
%ADD34C,1.5240*%
%ADD35C,1.6000*%
%ADD36C,1.3000*%
%ADD37R,1.8000X1.8000*%
%ADD38C,2.0000*%
%ADD39C,1.9000*%
%ADD40C,2.7940*%
%ADD41R,1.6000X1.6000*%
%ADD42C,1.2116*%
%ADD43C,1.3000*%
%ADD44C,3.5000*%

%LPD*%
D33*
G01*
X-228600Y8064500D03*
G01*
X-228600Y8318500D03*
D12*
G01*
X1790700Y5829300D03*
G01*
X1790700Y6083300D03*
G01*
X1790700Y6337300D03*
G01*
X1790700Y6591300D03*
D34*
G01*
X3200400Y9144990D03*
G01*
X3200400Y9398990D03*
G01*
X3200400Y8888984D03*
D33*
G01*
X3848100Y9398000D03*
G01*
X3594100Y9398000D03*
G01*
X3873500Y8227060D03*
G01*
X3619500Y8227060D03*
D34*
G01*
X3200400Y8078190D03*
G01*
X3200400Y8332190D03*
G01*
X3200400Y7822184D03*
D35*
G01*
X2336800Y8919387D03*
G01*
X2336800Y9419386D03*
D36*
G01*
X1406311Y3185253D03*
G01*
X1406311Y2985254D03*
D35*
G01*
X1536700Y4460494D03*
G01*
X1536700Y4810505D03*
G36*
X227500Y3493599D02*
G01*
X407499Y3493599D01*
X407499Y3313600D01*
X227500Y3313600D01*
G37*
D38*
G01*
X190500Y9779000D03*
G01*
X203200Y5715000D03*
G01*
X1473200Y5715000D03*
G01*
X1460500Y9779000D03*
D35*
G01*
X770712Y5130800D03*
G01*
X270713Y5130800D03*
D39*
G01*
X4737100Y3314674D03*
D37*
G01*
X4736998Y3568700D03*
D39*
G01*
X3365500Y3314700D03*
D37*
G01*
X3365398Y3568725D03*
D39*
G01*
X4051300Y3314700D03*
D37*
G01*
X4051198Y3568725D03*
D39*
G01*
X2679700Y3314674D03*
D37*
G01*
X2679598Y3568725D03*
D40*
G01*
X5921247Y9206306D03*
G01*
X5321300Y7786293D03*
G01*
X4721301Y7986293D03*
G01*
X5921298Y7986293D03*
G01*
X4721352Y9206306D03*
G01*
X5908547Y6412306D03*
G01*
X5308600Y4992293D03*
G01*
X4708601Y5192293D03*
G01*
X5908598Y5192293D03*
G01*
X4708652Y6412306D03*
D33*
G01*
X5740400Y3505200D03*
D37*
G01*
X5740400Y4267200D03*
D33*
G01*
X5740400Y4013200D03*
G01*
X5740400Y3759200D03*
D41*
G01*
X3371824Y6144895D03*
D35*
G01*
X3371824Y6398895D03*
G01*
X3625824Y6144895D03*
G01*
X3625824Y6398895D03*
G01*
X3879824Y6144895D03*
G01*
X3879824Y6398895D03*
D42*
G01*
X4000500Y4978400D03*
G01*
X3517900Y4978400D03*
D35*
G01*
X2571546Y4885265D03*
G01*
X2071573Y4885265D03*
D43*
G01*
X1028700Y3568700D03*
G01*
X1028700Y3797300D03*
G01*
X1028700Y4025900D03*
D44*
G01*
X4724400Y9855200D03*
G01*
X5334000Y9855200D03*
G01*
X5930900Y9855200D03*
G01*
X5905500Y6997700D03*
G01*
X5321300Y6997700D03*
G01*
X4699000Y6997700D03*
D17*
G01*
X2063325Y3004820D03*
G01*
X1943100Y4000500D03*
G01*
X1943100Y3860800D03*
G01*
X1943100Y3721100D03*
G01*
X1943100Y3581400D03*
G01*
X1384300Y3792220D03*
G01*
X1384300Y3624579D03*
G01*
X1562100Y3624579D03*
G01*
X1739900Y3624579D03*
G01*
X1739900Y3792220D03*
G01*
X1739900Y3959860D03*
G01*
X1562100Y3959860D03*
G01*
X1384300Y3959860D03*
G01*
X1562100Y3792220D03*
G01*
X279400Y4508969D03*
G01*
X751839Y4511227D03*
G01*
X3055437Y4408170D03*
G01*
X3737429Y4421416D03*
G01*
X4381500Y4394200D03*
G01*
X4699000Y4094479D03*
G01*
X4049486Y4089400D03*
G01*
X3383643Y4100286D03*
G01*
X2720152Y4095983D03*
G01*
X3759200Y4787900D03*
G01*
X3086100Y5118100D03*
G01*
X2587713Y5715111D03*
G01*
X2425700Y5714530D03*
G01*
X2268372Y5716249D03*
G01*
X2040653Y5265420D03*
G01*
X2349500Y5645856D03*
G01*
X2346959Y6101079D03*
G01*
X2451734Y6101079D03*
G01*
X2556509Y6101079D03*
G01*
X2661284Y6101079D03*
G01*
X2766059Y6101079D03*
G01*
X2766059Y6215379D03*
G01*
X2661284Y6215379D03*
G01*
X2556509Y6215379D03*
G01*
X2451734Y6215379D03*
G01*
X2346959Y6215379D03*
G01*
X2346959Y6323329D03*
G01*
X2451734Y6323329D03*
G01*
X2556509Y6323329D03*
G01*
X2661284Y6323329D03*
G01*
X2766059Y6323329D03*
G01*
X2766059Y6434454D03*
G01*
X2766059Y6545579D03*
G01*
X2661284Y6545579D03*
G01*
X2661284Y6434454D03*
G01*
X2556509Y6434454D03*
G01*
X2556509Y6545579D03*
G01*
X2451734Y6545579D03*
G01*
X2451734Y6434454D03*
G01*
X2346959Y6434454D03*
G01*
X2346959Y6545579D03*
G01*
X2525486Y7476672D03*
G01*
X3075940Y7479029D03*
G01*
X3070859Y6990079D03*
G01*
X-409691Y7869768D03*
G01*
X2311400Y7810500D03*
G01*
X1460500Y8369300D03*
G01*
X2095500Y7222489D03*
G01*
X2108200Y5928360D03*
G01*
X2442209Y4575810D03*
G01*
X3086100Y4572000D03*
G01*
X3778956Y4559300D03*
G01*
X3156656Y6591300D03*
G01*
X1955800Y6781800D03*
G01*
X2070100Y7708900D03*
G01*
X2755900Y8547100D03*
G01*
X2613659Y7719060D03*
G01*
X3641404Y7319904D03*
G01*
X3476170Y8594272D03*
G01*
X4076700Y8597900D03*
G01*
X3937000Y7327900D03*
G01*
X2692400Y7493000D03*
G01*
X2514600Y6921500D03*
G01*
X3325047Y2984500D03*
G01*
X5956300Y4483100D03*
G01*
X5049156Y4396013D03*
G01*
X1968500Y6285560D03*
G01*
X2634343Y5265059D03*
G01*
X2425700Y6972300D03*
G01*
X1968500Y6183960D03*
G01*
X1968500Y6082360D03*
G01*
X3156656Y6437490D03*
G01*
X3156658Y6340833D03*
G01*
X3156658Y6244165D03*
G01*
X3156653Y6147503D03*
G01*
X3154773Y6050841D03*
G01*
X2984500Y4902200D03*
G01*
X1930400Y4292600D03*
G01*
X2092959Y4598670D03*
G01*
X2323073Y3232150D03*
G01*
X2487747Y3830680D03*
G01*
X3048000Y3683000D03*
G01*
X3225800Y3860800D03*
G01*
X5123179Y3615689D03*
G01*
X5090159Y4185920D03*
G01*
X3718425Y3615489D03*
G01*
X3953931Y3970865D03*
G01*
X1968500Y6642100D03*
G01*
X1968500Y6387160D03*
D33*
X317500Y3911600D02*
G01*
X317500Y3911600D01*
X317500Y3657600D02*
G01*
X317500Y3657600D01*
M02*
